<svg width="256" height="256" viewBox="0 0 256 256" fill="none" xmlns="http://www.w3.org/2000/svg"><rect y="-0.000488281" width="256" height="256" fill="white"/><path d="M166.146 12.028L163.855 141.072C163.855 146.161 160.945 152.744 155.477 152.744H152.546C147.077 152.744 144.168 145.514 144.168 140.29L135.418 11.012C133.179 11.0241 130.889 11.0241 128.495 11.0241C124.316 11.0241 120.405 11 116.701 11L107.951 142.063C107.982 146.797 105.062 152.743 99.5938 152.743H96.6628C91.1944 152.743 88.285 145.512 88.285 140.288L86.0153 12.5397C56.9898 17.9594 57 42.1097 57 147.898C57 183.584 68.9588 214.659 90.3172 231.358C93.2368 233.646 96.3227 235.664 99.5938 237.389C102.833 239.09 106.259 240.459 109.83 241.549V256H152.082V239.908C155.684 238.453 159.058 236.581 162.287 234.477C166.26 231.895 169.932 228.849 173.317 225.386C190.486 207.805 200 179.692 200 147.908C200 38.1845 198.214 16.2978 166.146 12.028Z" fill="#010002"/></svg>
