<svg xmlns="http://www.w3.org/2000/svg" fill="none" viewBox="0 0 553 156"><path fill="#000" d="M272.51 121.91c-1.12 0-1.98-.58-2.58-1.76-.6-1.1-.9-2.1-.9-3.03 0-.17.04-.38.13-.63v-.76a34.2 34.2 0 0 1 4.25-11.6 55.36 55.36 0 0 1 7.1-9.7c2.74-3.12 5.58-6.15 8.5-9.09a46.89 46.89 0 0 1-4.9-5.04 9.91 9.91 0 0 1-2.45-6.3c0-2.36.9-4.25 2.71-5.68a17.57 17.57 0 0 1 6.83-3.16 47.43 47.43 0 0 1 8.64-1.5c3.01-.26 5.72-.39 8.13-.39.94 0 1.8.04 2.57.13h2.2c5.32-4.7 10.7-9.33 16.11-13.87 5.5-4.63 11-9.17 16.5-13.62l10.45-8.45 2.7-1.9a60.8 60.8 0 0 0 2.45-2.01c.26-.25.48-.5.65-.76.26-.25.56-.46.9-.63.95-.84 2.37-1.72 4.26-2.65 1.97-1 3.6-1.51 4.9-1.51.94 0 1.41.34 1.41 1 0 .35-.04.56-.13.64a74.83 74.83 0 0 1-4.38 9.84 12.87 12.87 0 0 1-2.7 3.78c-.18.17-.4.3-.65.38-.17.08-.39.2-.65.38-.51.33-.81.67-.9 1 0 .34-.13.8-.39 1.4a31.04 31.04 0 0 1-2.19 4.03l-2.32 4.03c-1.63 3.11-3.26 6.3-4.9 9.59-1.54 3.2-3 6.47-4.38 9.83h7.35c.86 0 1.67.05 2.45.13.17 0 .43.04.77.13.34.08.52.25.52.5s-.26.46-.78.63c-.51.08-.86.17-1.03.25-1.63.26-3.56.6-5.8 1.01a9.66 9.66 0 0 0-5.16 2.27 70.83 70.83 0 0 0-5.03 26.48v.89c0 .25.05.54.13.88 1.04.08 2.07.13 3.1.13 1.03.08 2.1.12 3.22.12a14 14 0 0 0 1.94-.12h1.93c.69 0 1.03.2 1.03.63 0 .67-.51 1.64-1.55 2.9a11.4 11.4 0 0 1-2.32 2.64 10.34 10.34 0 0 1-6.06 1.9c-2.23 0-3.95-.5-5.15-1.52-1.2-.92-2.02-2.52-2.45-4.79-3.01-.25-6.53-.71-10.57-1.39-4.04-.67-8.21-1.5-12.51-2.52-4.3-1-8.34-2.18-12.12-3.53a41.99 41.99 0 0 1-9.41-4.8 197.35 197.35 0 0 0-7.74 8.58 63.51 63.51 0 0 0-6.57 9.34 32.75 32.75 0 0 0-3.87 10.59v1.13c0 .6.08 1.22.26 1.9.08.67.13 1.34.13 2.01 0 1.1-.56 1.64-1.68 1.64Zm72.72-58.13 2.06-5.3c.77-1.76 1.5-3.49 2.19-5.17.26-.59.77-1.68 1.55-3.28a664.7 664.7 0 0 1 2.7-5.8c1.04-2.27 2.02-4.46 2.97-6.56.94-2.1 1.72-3.9 2.32-5.42.69-1.6 1.03-2.56 1.03-2.9 0-.08-.04-.13-.13-.13A262.26 262.26 0 0 0 338 45.5a350.34 350.34 0 0 0-20.37 18.16l27.6.13Zm-8.77 32.79v-.64c0-5.2.86-10.25 2.58-15.13a756.4 756.4 0 0 0 5.15-14.37h-4.25a67.56 67.56 0 0 0-4.13-.13c-2.32 0-5.11.08-8.38.25-3.18.17-6.31.59-9.4 1.26-3.02.6-5.47 1.6-7.36 3.03-2.75 2.1-5.54 4.29-8.38 6.56a89.83 89.83 0 0 0-8 6.93 30.8 30.8 0 0 0 8.65 5.05c3.6 1.34 7.43 2.52 11.47 3.53 4.04 1 8 1.8 11.86 2.4 3.87.58 7.27 1 10.19 1.26Zm-45.13-13.62c2.84-2.78 5.76-5.47 8.77-8.08 3-2.69 5.97-5.38 8.9-8.07a7.4 7.4 0 0 0-1.42-.12h-1.3c-1.28 0-3 .17-5.15.5-2.15.25-4.3.76-6.44 1.52a18.5 18.5 0 0 0-5.29 2.9 5.45 5.45 0 0 0-2.2 4.41c0 1.34.44 2.6 1.3 3.78a35.96 35.96 0 0 0 2.83 3.16Zm54.8 20.05c.77 0 1.55-.38 2.32-1.14.77-.75 1.16-1.51 1.16-2.27v-.12h-1.3a6.7 6.7 0 0 1-1.28.12 16 16 0 0 1-1.93-.12h-1.94c.17.75.47 1.5.9 2.27a2.16 2.16 0 0 0 2.07 1.26Zm9.17-4.92c-.6 0-.85-.21-.77-.63a143.8 143.8 0 0 0 6.58-12.36c2.06-4.2 4-8.45 5.8-12.74 0-.17.17-.63.52-1.38.34-.85.51-1.3.51-1.4 0-.24-.21-.33-.64-.24-.43.08-.65-.05-.65-.38 0-.17.35-.8 1.03-1.9a79.74 79.74 0 0 1 2.2-3.52 88.84 88.84 0 0 1 1.41-2.27 6.85 6.85 0 0 1 2.45-1.52 7.9 7.9 0 0 1 2.71-.75c.86 0 1.29.37 1.29 1.13 0 .25-.3 1.1-.9 2.52-.6 1.43-1.38 3.11-2.32 5.05-.95 1.93-1.9 3.9-2.84 5.92a174.21 174.21 0 0 1-4.13 8.33c.7-.84 1.81-2.06 3.36-3.66a299.7 299.7 0 0 1 5.41-5.42c2.06-1.94 4.13-3.79 6.19-5.55a51.33 51.33 0 0 1 5.54-4.42c1.72-1.17 3.06-1.76 4-1.76.69 0 1.07.25 1.16.76.17.5.26.96.26 1.38 0 1.1-.13 2.23-.39 3.4a39.9 39.9 0 0 1-.9 3.41 415 415 0 0 1-2.58 8.96 33.25 33.25 0 0 0-1.42 8.82c0 1.27.22 2.44.65 3.53.51 1.01 1.55 1.52 3.1 1.52a7.4 7.4 0 0 0 3.73-1.14 19.77 19.77 0 0 0 3.74-2.64c1.2-1.1 2.23-2.02 3.1-2.78.94-.76 1.54-1.13 1.8-1.13.08 0 .13.08.13.25 0 .25-.09.59-.26 1-.09.34-.22.6-.39.76a23.81 23.81 0 0 1-6.06 6.06c-2.58 1.93-5.15 2.9-7.73 2.9-2.67 0-4.69-.76-6.06-2.27-1.3-1.6-1.94-3.66-1.94-6.18 0-2.19.4-4.63 1.16-7.32a189.2 189.2 0 0 0 2.84-9.7c.34-.93.52-1.73.52-2.4 0-.17-.05-.38-.13-.63-.09-.26-.26-.38-.52-.38-.43 0-.99.25-1.67.75l-1.42 1.01a73.2 73.2 0 0 0-5.55 5.17 101.6 101.6 0 0 0-5.93 6.94 121.28 121.28 0 0 0-5.41 7.19 56.2 56.2 0 0 0-3.87 6.3c-.17.42-.73.93-1.68 1.52-.85.5-1.8.92-2.83 1.26-.95.42-1.68.63-2.2.63Z"/><path fill="#000" d="M409 96.19c-4.21 0-6.32-2.1-6.32-6.3 0-2.53.6-5.35 1.8-8.46 1.3-3.2 2.75-6.35 4.39-9.46 1.72-3.1 3.14-5.75 4.25-7.94-1.2.08-2.62.3-4.25.63a25.7 25.7 0 0 1-4 .38c-.34 0-.69-.04-1.03-.13a.84.84 0 0 1-.39-.75c0-.5.26-.85.78-1.01.6-.42 1.2-.8 1.8-1.14a43.3 43.3 0 0 0 1.94-1 51.33 51.33 0 0 0 4.9-3.54 73.32 73.32 0 0 0 4.64-4.16l.9-1.77c.34-.58.94-1 1.8-1.26a18.4 18.4 0 0 0 2.97-1.13 7.94 7.94 0 0 1 2.84-.88c.43 0 .64.16.64.5a7 7 0 0 1-.9 2.02 78.1 78.1 0 0 1-4.13 7.56 34.8 34.8 0 0 1-1.16 2.02h2.7a76 76 0 0 1 4.4.13c1.54.08 2.87.25 3.99.5 1.12.26 1.68.6 1.68 1.01 0 .34-.26.59-.78.76-.43.08-.9.12-1.42.12-2.06 0-4.12.05-6.19.13-1.97 0-3.95.13-5.93.38-.86 1.51-1.89 3.4-3.09 5.67a284.94 284.94 0 0 0-3.48 7.07 68.88 68.88 0 0 0-2.84 7.18 18.8 18.8 0 0 0-1.16 5.93c0 1.1.22 1.98.65 2.65.51.67 1.37 1 2.58 1 1.2 0 2.53-.37 4-1.13a26.3 26.3 0 0 0 4.12-2.64l3.48-2.78c1.03-.76 1.68-1.13 1.93-1.13.09 0 .13.04.13.12 0 .34-.13.72-.38 1.14a2.9 2.9 0 0 1-.52.75 32.73 32.73 0 0 1-4.25 4.16 28.7 28.7 0 0 1-5.55 3.41 12.64 12.64 0 0 1-5.54 1.39Zm1.29-35.06c.77-.17 1.5-.25 2.19-.25l2.19-.26c.26-.58.47-1.17.64-1.76l.52-1.77a29.5 29.5 0 0 0-2.84 2.02 73.8 73.8 0 0 1-2.7 2.02Z"/><path fill="#000" d="M439.52 55.33c-.26 0-.43-.3-.51-.88v-1.27c0-.25.04-.8.13-1.64.08-.84.34-1.3.77-1.38a54.16 54.16 0 0 0 7.22-1.52c.17-.08.43-.12.77-.12.43 0 .65.2.65.63 0 .92-.6 1.89-1.8 2.9a18.43 18.43 0 0 1-3.88 2.4 9.18 9.18 0 0 1-3.35.88Zm-10.44 40.86c-4.21 0-6.32-2.1-6.32-6.3 0-1.77.26-3.58.78-5.43a59.1 59.1 0 0 1 1.93-5.17 62.82 62.82 0 0 1 2.58-5.42l2.83-5.3c.43-.76.82-1.51 1.16-2.27.43-.84.86-1.64 1.3-2.4a5.03 5.03 0 0 1 2.44-1.51 9.27 9.27 0 0 1 2.84-.63c.08 0 .08.04 0 .13h-.13c.09 0 .13.04.13.12a.89.89 0 0 1 .64-.25c.35 0 .56.17.65.5.08.26.13.5.13.76 0 .59-.26 1.47-.78 2.65a17.92 17.92 0 0 1-1.67 3.4c-.6 1.01-1.2 1.64-1.8 1.9a49.66 49.66 0 0 1-3.1 5.8 91.22 91.22 0 0 0-3.35 6.43 13.96 13.96 0 0 0-1.55 6.18c0 2.35 1.29 3.53 3.87 3.53 1.2 0 2.49-.38 3.86-1.14a32.3 32.3 0 0 0 4.26-2.64l3.48-2.78c1.03-.76 1.68-1.13 1.94-1.13.08 0 .12.04.12.12 0 .34-.13.72-.38 1.14-.26.33-.48.59-.65.75a26.6 26.6 0 0 1-4.12 4.16 28.7 28.7 0 0 1-5.55 3.41 12.64 12.64 0 0 1-5.54 1.39Z"/><path fill="#000" d="M452.23 138.06c-2.49 0-4.16-.97-5.02-2.9a13.62 13.62 0 0 1-1.3-5.8c0-2.87.57-6.35 1.68-10.47 1.12-4.04 2.5-8.28 4.13-12.74a230.23 230.23 0 0 1 9.67-22.7c-.86.92-2.06 2.14-3.61 3.66a63.59 63.59 0 0 1-4.9 4.54 43.65 43.65 0 0 1-5.42 3.9c-1.8 1.02-3.4 1.52-4.77 1.52-.94 0-1.59-.34-1.93-1a6.3 6.3 0 0 1-.39-2.28c0-1.76.43-4 1.3-6.68a57.34 57.34 0 0 1 8.64-16.77 31.49 31.49 0 0 1 6.05-6.06c2.15-1.6 4.3-2.31 6.45-2.14.94-.5 1.97-.97 3.1-1.39a9.46 9.46 0 0 1 3.34-.63c.69 0 1.38.04 2.06.13.78.08 1.51.16 2.2.25a7.05 7.05 0 0 1 2.19-.88 8.7 8.7 0 0 1 3.87-.26c.6.09.9.38.9.89l-.13.5-4.13 5.55a92.32 92.32 0 0 0-4 5.55 141.07 141.07 0 0 0-4.63 7.7 110.49 110.49 0 0 0-3.87 7.81 40.73 40.73 0 0 1 3.87 7.94 58.86 58.86 0 0 1 2.57 9.21 40.44 40.44 0 0 1 1.04 8.7c0 3.95-.73 7.74-2.2 11.35a22.2 22.2 0 0 1-7.22 9.46c-1.28.92-2.79 1.8-4.5 2.65a10.2 10.2 0 0 1-5.04 1.39Zm-4.9-45.28c.44 0 .9-.17 1.42-.5l1.42-1.01a40 40 0 0 0 8-7.7 88.96 88.96 0 0 0 7.09-10.2 139.7 139.7 0 0 0 5.54-9.72c-.34-.17-.73-.3-1.16-.38a6.69 6.69 0 0 0-1.29-.12 9.9 9.9 0 0 0-4.77 1.26 15.99 15.99 0 0 0-4 3.02 39.47 39.47 0 0 0-5.02 6.69 88.34 88.34 0 0 0-4.52 8.45 88.11 88.11 0 0 0-3.1 7.69l-.25.76c-.09.25-.13.54-.13.88 0 .59.26.88.77.88Zm8.13 42c1.29 0 2.49-.6 3.6-1.77a21.75 21.75 0 0 0 3.36-4.29 35.06 35.06 0 0 0 2.58-5.04 28.65 28.65 0 0 0 2.58-11.73c0-3.45-.56-7.31-1.68-11.6a76.54 76.54 0 0 0-3.48-10.97 268.56 268.56 0 0 0-6.32 19.92c-.94 3.79-1.76 7.4-2.45 10.85-.6 3.53-.9 6.68-.9 9.46 0 .84.13 1.89.39 3.15.34 1.34 1.11 2.02 2.32 2.02Zm53.08-37.58c-2.32 0-3.87-.89-4.64-2.65a15.82 15.82 0 0 1-1.03-5.55c0-2.44.26-4.88.77-7.32.52-2.43.86-4.87 1.03-7.31l-4.38 5.42c-1.89 2.27-4 4.67-6.32 7.2a56.1 56.1 0 0 1-6.83 6.17c-2.23 1.68-4.17 2.52-5.8 2.52-3.18 0-4.77-1.64-4.77-4.92 0-2.18.43-4.4 1.29-6.68a61.88 61.88 0 0 1 3.22-6.8l3.48-6.19h-.26c-.51 0-.77-.2-.77-.63v-.38c.09-.08.13-.17.13-.25 1.2-2.02 2.2-3.74 2.96-5.17a8.08 8.08 0 0 1 3.1-3.4c1.29-.76 3.26-1.14 5.93-1.14.43 0 .64.25.64.76 0 .59-.47 1.72-1.41 3.4-.95 1.6-1.98 3.2-3.1 4.8a117.9 117.9 0 0 0-2.32 3.4 49.52 49.52 0 0 0-2.58 4.92 108.44 108.44 0 0 0-2.83 6.55 16.5 16.5 0 0 0-1.16 5.18 6 6 0 0 0 .13 1.26c.17.33.51.5 1.03.5a5.5 5.5 0 0 0 2.96-1.13 66.01 66.01 0 0 0 11.86-11.35c2.84-3.54 5.42-7.1 7.74-10.72.26-.5.38-.97.38-1.4.26-1 .65-1.97 1.16-2.9a6.62 6.62 0 0 1 2.07-2.26 9.08 9.08 0 0 1 2.83-1.01c1.2-.25 2.15-.38 2.84-.38.35 0 .77.09 1.29.25.52.09.77.34.77.76s-.38 1.1-1.16 2.02c-.68.92-1.46 1.85-2.32 2.77-.77.84-1.33 1.56-1.67 2.15a22.45 22.45 0 0 0-2.07 5.92 75.6 75.6 0 0 0-1.41 7.7c-.35 2.6-.52 4.75-.52 6.43 0 1.1.13 2.31.39 3.66.25 1.34 1.11 2.01 2.57 2.01a7.3 7.3 0 0 0 4.39-1.64 42.8 42.8 0 0 0 4-3.4c1.11-1.18 1.76-1.77 1.93-1.77.08 0 .13.09.13.26 0 .75-.43 1.63-1.3 2.64a28.58 28.58 0 0 1-2.83 2.9c-.94.84-1.67 1.48-2.19 1.9-1.03.75-2.2 1.42-3.48 2.01a9.25 9.25 0 0 1-3.87.89Z"/><path fill="#000" d="M521.09 97.07c-1.9 0-3.14-.3-3.74-.88-.6-.6-.9-1.81-.9-3.66 0-2.02.47-4.33 1.41-6.94a94.64 94.64 0 0 1 2.84-6.55c0-.09-.04-.13-.13-.13v-.25c0-.42.13-.76.39-1.01.34-.25.6-.5.77-.76.43-.67.82-1.34 1.16-2.02.34-.67.69-1.3 1.03-1.89a41.27 41.27 0 0 1 5.29-6.55 16.8 16.8 0 0 1 7.22-4.3 10.5 10.5 0 0 1 2.7-.37c.18 0 .35.04.52.13.26 0 .39.08.39.25 0 .25-.26.54-.78.88a25.54 25.54 0 0 0-5.41 5.8 514.7 514.7 0 0 0-3.74 5.55c1.98-.34 3.91-.59 5.8-.76a35.1 35.1 0 0 1 5.8 0c.95-1.34 1.8-2.98 2.58-4.91a14.28 14.28 0 0 0 1.3-5.55c0-.93-.14-1.47-.4-1.64-.17-.17-.64-.25-1.41-.25a3.6 3.6 0 0 1-.78-.13c-.34-.09-.51-.25-.51-.5 0-.34.38-.64 1.16-.89.77-.25 1.59-.42 2.45-.5a11.1 11.1 0 0 1 1.67-.25c2.32 0 3.48 1.05 3.48 3.15 0 1.17-.38 2.6-1.16 4.29a20.53 20.53 0 0 1-2.7 4.54 10.86 10.86 0 0 1-3.1 2.9c.26 0 .78.12 1.55.37.86.17 1.63.38 2.32.63.77.26 1.16.55 1.16.89 0 .25-.26.42-.77.5h-1.03c-.78 0-1.55-.04-2.32-.12-.78-.17-1.55-.26-2.33-.26-2.4 0-4.85.17-7.35.5-2.4.34-4.8.76-7.22 1.27a91.65 91.65 0 0 0-2.96 5.8 15.98 15.98 0 0 0-1.55 6.3c0 2.95 1.55 4.42 4.64 4.42 2.24 0 4.39-.59 6.45-1.77a32.4 32.4 0 0 0 5.93-4.16c1.8-1.6 3.27-2.98 4.39-4.16 1.11-1.18 1.76-1.76 1.93-1.76.26 0 .38.16.38.5 0 1-.6 2.23-1.8 3.66a23.3 23.3 0 0 1-2.97 2.9c-3 2.27-6.4 4.12-10.18 5.55a31.55 31.55 0 0 1-11.47 2.14Z"/><path stroke="#000" stroke-width="2" d="M272.51 121.91c-1.12 0-1.98-.58-2.58-1.76-.6-1.1-.9-2.1-.9-3.03 0-.17.04-.38.13-.63v-.76a34.2 34.2 0 0 1 4.25-11.6 55.36 55.36 0 0 1 7.1-9.7c2.74-3.12 5.58-6.15 8.5-9.09a46.89 46.89 0 0 1-4.9-5.04 9.91 9.91 0 0 1-2.45-6.3c0-2.36.9-4.25 2.71-5.68a17.57 17.57 0 0 1 6.83-3.16 47.43 47.43 0 0 1 8.64-1.5c3.01-.26 5.72-.39 8.13-.39.94 0 1.8.04 2.57.13h2.2c5.32-4.7 10.7-9.33 16.11-13.87 5.5-4.63 11-9.17 16.5-13.62l10.45-8.45 2.7-1.9a60.8 60.8 0 0 0 2.45-2.01c.26-.25.48-.5.65-.76.26-.25.56-.46.9-.63.95-.84 2.37-1.72 4.26-2.65 1.97-1 3.6-1.51 4.9-1.51.94 0 1.41.34 1.41 1 0 .35-.04.56-.13.64a74.83 74.83 0 0 1-4.38 9.84 12.87 12.87 0 0 1-2.7 3.78c-.18.17-.4.3-.65.38-.17.08-.39.2-.65.38-.51.33-.81.67-.9 1 0 .34-.13.8-.39 1.4a31.04 31.04 0 0 1-2.19 4.03l-2.32 4.03c-1.63 3.11-3.26 6.3-4.9 9.59-1.54 3.2-3 6.47-4.38 9.83h7.35c.86 0 1.67.05 2.45.13.17 0 .43.04.77.13.34.08.52.25.52.5s-.26.46-.78.63c-.51.08-.86.17-1.03.25-1.63.26-3.56.6-5.8 1.01a9.66 9.66 0 0 0-5.16 2.27 70.83 70.83 0 0 0-5.03 26.48v.89c0 .25.05.54.13.88 1.04.08 2.07.13 3.1.13 1.03.08 2.1.12 3.22.12a14 14 0 0 0 1.94-.12h1.93c.69 0 1.03.2 1.03.63 0 .67-.51 1.64-1.55 2.9a11.4 11.4 0 0 1-2.32 2.64 10.34 10.34 0 0 1-6.06 1.9c-2.23 0-3.95-.5-5.15-1.52-1.2-.92-2.02-2.52-2.45-4.79-3.01-.25-6.53-.71-10.57-1.39-4.04-.67-8.21-1.5-12.51-2.52-4.3-1-8.34-2.18-12.12-3.53a41.99 41.99 0 0 1-9.41-4.8 197.35 197.35 0 0 0-7.74 8.58 63.51 63.51 0 0 0-6.57 9.34 32.75 32.75 0 0 0-3.87 10.59v1.13c0 .6.08 1.22.26 1.9.08.67.13 1.34.13 2.01 0 1.1-.56 1.64-1.68 1.64Zm72.72-58.13 2.06-5.3c.77-1.76 1.5-3.49 2.19-5.17.26-.59.77-1.68 1.55-3.28a664.7 664.7 0 0 1 2.7-5.8c1.04-2.27 2.02-4.46 2.97-6.56.94-2.1 1.72-3.9 2.32-5.42.69-1.6 1.03-2.56 1.03-2.9 0-.08-.04-.13-.13-.13A262.26 262.26 0 0 0 338 45.5a350.34 350.34 0 0 0-20.37 18.16l27.6.13Zm-8.77 32.79v-.64c0-5.2.86-10.25 2.58-15.13a756.4 756.4 0 0 0 5.15-14.37h-4.25a67.56 67.56 0 0 0-4.13-.13c-2.32 0-5.11.08-8.38.25-3.18.17-6.31.59-9.4 1.26-3.02.6-5.47 1.6-7.36 3.03-2.75 2.1-5.54 4.29-8.38 6.56a89.83 89.83 0 0 0-8 6.93 30.8 30.8 0 0 0 8.65 5.05c3.6 1.34 7.43 2.52 11.47 3.53 4.04 1 8 1.8 11.86 2.4 3.87.58 7.27 1 10.19 1.26Zm-45.13-13.62c2.84-2.78 5.76-5.47 8.77-8.08 3-2.69 5.97-5.38 8.9-8.07a7.4 7.4 0 0 0-1.42-.12h-1.3c-1.28 0-3 .17-5.15.5-2.15.25-4.3.76-6.44 1.52a18.5 18.5 0 0 0-5.29 2.9 5.45 5.45 0 0 0-2.2 4.41c0 1.34.44 2.6 1.3 3.78a35.96 35.96 0 0 0 2.83 3.16Zm54.8 20.05c.77 0 1.55-.38 2.32-1.14.77-.75 1.16-1.51 1.16-2.27v-.12h-1.3a6.7 6.7 0 0 1-1.28.12 16 16 0 0 1-1.93-.12h-1.94c.17.75.47 1.5.9 2.27a2.16 2.16 0 0 0 2.07 1.26Zm9.17-4.92c-.6 0-.85-.21-.77-.63a143.8 143.8 0 0 0 6.58-12.36c2.06-4.2 4-8.45 5.8-12.74 0-.17.17-.63.52-1.38.34-.85.51-1.3.51-1.4 0-.24-.21-.33-.64-.24-.43.08-.65-.05-.65-.38 0-.17.35-.8 1.03-1.9a79.74 79.74 0 0 1 2.2-3.52 88.84 88.84 0 0 1 1.41-2.27 6.85 6.85 0 0 1 2.45-1.52 7.9 7.9 0 0 1 2.71-.75c.86 0 1.29.37 1.29 1.13 0 .25-.3 1.1-.9 2.52-.6 1.43-1.38 3.11-2.32 5.05-.95 1.93-1.9 3.9-2.84 5.92a174.21 174.21 0 0 1-4.13 8.33c.7-.84 1.81-2.06 3.36-3.66a299.7 299.7 0 0 1 5.41-5.42c2.06-1.94 4.13-3.79 6.19-5.55a51.33 51.33 0 0 1 5.54-4.42c1.72-1.17 3.06-1.76 4-1.76.69 0 1.07.25 1.16.76.17.5.26.96.26 1.38 0 1.1-.13 2.23-.39 3.4a39.9 39.9 0 0 1-.9 3.41 415 415 0 0 1-2.58 8.96 33.25 33.25 0 0 0-1.42 8.82c0 1.27.22 2.44.65 3.53.51 1.01 1.55 1.52 3.1 1.52a7.4 7.4 0 0 0 3.73-1.14 19.77 19.77 0 0 0 3.74-2.64c1.2-1.1 2.23-2.02 3.1-2.78.94-.76 1.54-1.13 1.8-1.13.08 0 .13.08.13.25 0 .25-.09.59-.26 1-.09.34-.22.6-.39.76a23.81 23.81 0 0 1-6.06 6.06c-2.58 1.93-5.15 2.9-7.73 2.9-2.67 0-4.69-.76-6.06-2.27-1.3-1.6-1.94-3.66-1.94-6.18 0-2.19.4-4.63 1.16-7.32a189.2 189.2 0 0 0 2.84-9.7c.34-.93.52-1.73.52-2.4 0-.17-.05-.38-.13-.63-.09-.26-.26-.38-.52-.38-.43 0-.99.25-1.67.75l-1.42 1.01a73.2 73.2 0 0 0-5.55 5.17 101.6 101.6 0 0 0-5.93 6.94 121.28 121.28 0 0 0-5.41 7.19 56.2 56.2 0 0 0-3.87 6.3c-.17.42-.73.93-1.68 1.52-.85.5-1.8.92-2.83 1.26-.95.42-1.68.63-2.2.63Z"/><path stroke="#000" stroke-width="2" d="M409 96.19c-4.21 0-6.32-2.1-6.32-6.3 0-2.53.6-5.35 1.8-8.46 1.3-3.2 2.75-6.35 4.39-9.46 1.72-3.1 3.14-5.75 4.25-7.94-1.2.08-2.62.3-4.25.63a25.7 25.7 0 0 1-4 .38c-.34 0-.69-.04-1.03-.13a.84.84 0 0 1-.39-.75c0-.5.26-.85.78-1.01.6-.42 1.2-.8 1.8-1.14a43.3 43.3 0 0 0 1.94-1 51.33 51.33 0 0 0 4.9-3.54 73.32 73.32 0 0 0 4.64-4.16l.9-1.77c.34-.58.94-1 1.8-1.26a18.4 18.4 0 0 0 2.97-1.13 7.94 7.94 0 0 1 2.84-.88c.43 0 .64.16.64.5a7 7 0 0 1-.9 2.02 78.1 78.1 0 0 1-4.13 7.56 34.8 34.8 0 0 1-1.16 2.02h2.7a76 76 0 0 1 4.4.13c1.54.08 2.87.25 3.99.5 1.12.26 1.68.6 1.68 1.01 0 .34-.26.59-.78.76-.43.08-.9.12-1.42.12-2.06 0-4.12.05-6.19.13-1.97 0-3.95.13-5.93.38-.86 1.51-1.89 3.4-3.09 5.67a284.94 284.94 0 0 0-3.48 7.07 68.88 68.88 0 0 0-2.84 7.18 18.8 18.8 0 0 0-1.16 5.93c0 1.1.22 1.98.65 2.65.51.67 1.37 1 2.58 1 1.2 0 2.53-.37 4-1.13a26.3 26.3 0 0 0 4.12-2.64l3.48-2.78c1.03-.76 1.68-1.13 1.93-1.13.09 0 .13.04.13.12 0 .34-.13.72-.38 1.14a2.9 2.9 0 0 1-.52.75 32.73 32.73 0 0 1-4.25 4.16 28.7 28.7 0 0 1-5.55 3.41 12.64 12.64 0 0 1-5.54 1.39Zm1.29-35.06c.77-.17 1.5-.25 2.19-.25l2.19-.26c.26-.58.47-1.17.64-1.76l.52-1.77a29.5 29.5 0 0 0-2.84 2.02 73.8 73.8 0 0 1-2.7 2.02Z"/><path stroke="#000" stroke-width="2" d="M439.52 55.33c-.26 0-.43-.3-.51-.88v-1.27c0-.25.04-.8.13-1.64.08-.84.34-1.3.77-1.38a54.16 54.16 0 0 0 7.22-1.52c.17-.08.43-.12.77-.12.43 0 .65.2.65.63 0 .92-.6 1.89-1.8 2.9a18.43 18.43 0 0 1-3.88 2.4 9.18 9.18 0 0 1-3.35.88Zm-10.44 40.86c-4.21 0-6.32-2.1-6.32-6.3 0-1.77.26-3.58.78-5.43a59.1 59.1 0 0 1 1.93-5.17 62.82 62.82 0 0 1 2.58-5.42l2.83-5.3c.43-.76.82-1.51 1.16-2.27.43-.84.86-1.64 1.3-2.4a5.03 5.03 0 0 1 2.44-1.51 9.27 9.27 0 0 1 2.84-.63c.08 0 .08.04 0 .13h-.13c.09 0 .13.04.13.12a.89.89 0 0 1 .64-.25c.35 0 .56.17.65.5.08.26.13.5.13.76 0 .59-.26 1.47-.78 2.65a17.92 17.92 0 0 1-1.67 3.4c-.6 1.01-1.2 1.64-1.8 1.9a49.66 49.66 0 0 1-3.1 5.8 91.22 91.22 0 0 0-3.35 6.43 13.96 13.96 0 0 0-1.55 6.18c0 2.35 1.29 3.53 3.87 3.53 1.2 0 2.49-.38 3.86-1.14a32.3 32.3 0 0 0 4.26-2.64l3.48-2.78c1.03-.76 1.68-1.13 1.94-1.13.08 0 .12.04.12.12 0 .34-.13.72-.38 1.14-.26.33-.48.59-.65.75a26.6 26.6 0 0 1-4.12 4.16 28.7 28.7 0 0 1-5.55 3.41 12.64 12.64 0 0 1-5.54 1.39Z"/><path stroke="#000" stroke-width="2" d="M452.23 138.06c-2.49 0-4.16-.97-5.02-2.9a13.62 13.62 0 0 1-1.3-5.8c0-2.87.57-6.35 1.68-10.47 1.12-4.04 2.5-8.28 4.13-12.74a230.23 230.23 0 0 1 9.67-22.7c-.86.92-2.06 2.14-3.61 3.66a63.59 63.59 0 0 1-4.9 4.54 43.65 43.65 0 0 1-5.42 3.9c-1.8 1.02-3.4 1.52-4.77 1.52-.94 0-1.59-.34-1.93-1a6.3 6.3 0 0 1-.39-2.28c0-1.76.43-4 1.3-6.68a57.34 57.34 0 0 1 8.64-16.77 31.49 31.49 0 0 1 6.05-6.06c2.15-1.6 4.3-2.31 6.45-2.14.94-.5 1.97-.97 3.1-1.39a9.46 9.46 0 0 1 3.34-.63c.69 0 1.38.04 2.06.13.78.08 1.51.16 2.2.25a7.05 7.05 0 0 1 2.19-.88 8.7 8.7 0 0 1 3.87-.26c.6.09.9.38.9.89l-.13.5-4.13 5.55a92.32 92.32 0 0 0-4 5.55 141.07 141.07 0 0 0-4.63 7.7 110.49 110.49 0 0 0-3.87 7.81 40.73 40.73 0 0 1 3.87 7.94 58.86 58.86 0 0 1 2.57 9.21 40.44 40.44 0 0 1 1.04 8.7c0 3.95-.73 7.74-2.2 11.35a22.2 22.2 0 0 1-7.22 9.46c-1.28.92-2.79 1.8-4.5 2.65a10.2 10.2 0 0 1-5.04 1.39Zm-4.9-45.28c.44 0 .9-.17 1.42-.5l1.42-1.01a40 40 0 0 0 8-7.7 88.96 88.96 0 0 0 7.09-10.2 139.7 139.7 0 0 0 5.54-9.72c-.34-.17-.73-.3-1.16-.38a6.69 6.69 0 0 0-1.29-.12 9.9 9.9 0 0 0-4.77 1.26 15.99 15.99 0 0 0-4 3.02 39.47 39.47 0 0 0-5.02 6.69 88.34 88.34 0 0 0-4.52 8.45 88.11 88.11 0 0 0-3.1 7.69l-.25.76c-.09.25-.13.54-.13.88 0 .59.26.88.77.88Zm8.13 42c1.29 0 2.49-.6 3.6-1.77a21.75 21.75 0 0 0 3.36-4.29 35.06 35.06 0 0 0 2.58-5.04 28.65 28.65 0 0 0 2.58-11.73c0-3.45-.56-7.31-1.68-11.6a76.54 76.54 0 0 0-3.48-10.97 268.56 268.56 0 0 0-6.32 19.92c-.94 3.79-1.76 7.4-2.45 10.85-.6 3.53-.9 6.68-.9 9.46 0 .84.13 1.89.39 3.15.34 1.34 1.11 2.02 2.32 2.02Zm53.08-37.58c-2.32 0-3.87-.89-4.64-2.65a15.82 15.82 0 0 1-1.03-5.55c0-2.44.26-4.88.77-7.32.52-2.43.86-4.87 1.03-7.31l-4.38 5.42c-1.89 2.27-4 4.67-6.32 7.2a56.1 56.1 0 0 1-6.83 6.17c-2.23 1.68-4.17 2.52-5.8 2.52-3.18 0-4.77-1.64-4.77-4.92 0-2.18.43-4.4 1.29-6.68a61.88 61.88 0 0 1 3.22-6.8l3.48-6.19h-.26c-.51 0-.77-.2-.77-.63v-.38c.09-.08.13-.17.13-.25 1.2-2.02 2.2-3.74 2.96-5.17a8.08 8.08 0 0 1 3.1-3.4c1.29-.76 3.26-1.14 5.93-1.14.43 0 .64.25.64.76 0 .59-.47 1.72-1.41 3.4-.95 1.6-1.98 3.2-3.1 4.8a117.9 117.9 0 0 0-2.32 3.4 49.52 49.52 0 0 0-2.58 4.92 108.44 108.44 0 0 0-2.83 6.55 16.5 16.5 0 0 0-1.16 5.18 6 6 0 0 0 .13 1.26c.17.33.51.5 1.03.5a5.5 5.5 0 0 0 2.96-1.13 66.01 66.01 0 0 0 11.86-11.35c2.84-3.54 5.42-7.1 7.74-10.72.26-.5.38-.97.38-1.4.26-1 .65-1.97 1.16-2.9a6.62 6.62 0 0 1 2.07-2.26 9.08 9.08 0 0 1 2.83-1.01c1.2-.25 2.15-.38 2.84-.38.35 0 .77.09 1.29.25.52.09.77.34.77.76s-.38 1.1-1.16 2.02c-.68.92-1.46 1.85-2.32 2.77-.77.84-1.33 1.56-1.67 2.15a22.45 22.45 0 0 0-2.07 5.92 75.6 75.6 0 0 0-1.41 7.7c-.35 2.6-.52 4.75-.52 6.43 0 1.1.13 2.31.39 3.66.25 1.34 1.11 2.01 2.57 2.01a7.3 7.3 0 0 0 4.39-1.64 42.8 42.8 0 0 0 4-3.4c1.11-1.18 1.76-1.77 1.93-1.77.08 0 .13.09.13.26 0 .75-.43 1.63-1.3 2.64a28.58 28.58 0 0 1-2.83 2.9c-.94.84-1.67 1.48-2.19 1.9-1.03.75-2.2 1.42-3.48 2.01a9.25 9.25 0 0 1-3.87.89Z"/><path stroke="#000" stroke-width="2" d="M521.09 97.07c-1.9 0-3.14-.3-3.74-.88-.6-.6-.9-1.81-.9-3.66 0-2.02.47-4.33 1.41-6.94a94.64 94.64 0 0 1 2.84-6.55c0-.09-.04-.13-.13-.13v-.25c0-.42.13-.76.39-1.01.34-.25.6-.5.77-.76.43-.67.82-1.34 1.16-2.02.34-.67.69-1.3 1.03-1.89a41.27 41.27 0 0 1 5.29-6.55 16.8 16.8 0 0 1 7.22-4.3 10.5 10.5 0 0 1 2.7-.37c.18 0 .35.04.52.13.26 0 .39.08.39.25 0 .25-.26.54-.78.88a25.54 25.54 0 0 0-5.41 5.8 514.7 514.7 0 0 0-3.74 5.55c1.98-.34 3.91-.59 5.8-.76a35.1 35.1 0 0 1 5.8 0c.95-1.34 1.8-2.98 2.58-4.91a14.28 14.28 0 0 0 1.3-5.55c0-.93-.14-1.47-.4-1.64-.17-.17-.64-.25-1.41-.25a3.6 3.6 0 0 1-.78-.13c-.34-.09-.51-.25-.51-.5 0-.34.38-.64 1.16-.89.77-.25 1.59-.42 2.45-.5a11.1 11.1 0 0 1 1.67-.25c2.32 0 3.48 1.05 3.48 3.15 0 1.17-.38 2.6-1.16 4.29a20.53 20.53 0 0 1-2.7 4.54 10.86 10.86 0 0 1-3.1 2.9c.26 0 .78.12 1.55.37.86.17 1.63.38 2.32.63.77.26 1.16.55 1.16.89 0 .25-.26.42-.77.5h-1.03c-.78 0-1.55-.04-2.32-.12-.78-.17-1.55-.26-2.33-.26-2.4 0-4.85.17-7.35.5-2.4.34-4.8.76-7.22 1.27a91.65 91.65 0 0 0-2.96 5.8 15.98 15.98 0 0 0-1.55 6.3c0 2.95 1.55 4.42 4.64 4.42 2.24 0 4.39-.59 6.45-1.77a32.4 32.4 0 0 0 5.93-4.16c1.8-1.6 3.27-2.98 4.39-4.16 1.11-1.18 1.76-1.76 1.93-1.76.26 0 .38.16.38.5 0 1-.6 2.23-1.8 3.66a23.3 23.3 0 0 1-2.97 2.9c-3 2.27-6.4 4.12-10.18 5.55a31.55 31.55 0 0 1-11.47 2.14Z"/><path fill="#000" d="M172.7 128.52c-3.6 0-7.43-.72-11.47-2.15a67.37 67.37 0 0 1-11.99-5.67 82.13 82.13 0 0 1-10.83-7.57 88.64 88.64 0 0 1-8.63-7.82 47.27 47.27 0 0 1-10.45 1.14c-4.64 0-9.06-.8-13.28-2.4a24.03 24.03 0 0 1-10.18-7.31C93.29 93.38 92 89.17 92 84.13c0-4.8 1.16-9.59 3.48-14.38 2.4-4.8 5.16-9 8.25-12.61a53.5 53.5 0 0 1-1.29-5.17c-.34-1.85-.51-3.7-.51-5.55 0-4.88 1.2-8.7 3.6-11.48a19.34 19.34 0 0 1 9.42-6.05A39.26 39.26 0 0 1 127.2 27c2.92 0 6.1.3 9.54.88 3.44.5 6.79 1.35 10.05 2.52a31.22 31.22 0 0 1 8.39 4.42c2.57.34 5.32 1.05 8.25 2.14 3 1.01 5.63 2.23 7.86 3.66.34.25.65.55.9.88.35.34.52.72.52 1.14 0 .59-.3.88-.9.88-.43 0-.9-.17-1.42-.5a44.24 44.24 0 0 0-5.8-3.28 37.24 37.24 0 0 0-6.32-2.27 43.5 43.5 0 0 1 8.5 10.84 26.88 26.88 0 0 1 3.36 13.24c0 4.38-.94 8.62-2.84 12.74a54.72 54.72 0 0 1-6.96 11.35 55.33 55.33 0 0 1-11.6 11.1 50.95 50.95 0 0 1-14.31 7.31 90.8 90.8 0 0 0 7.09 6.94 81.25 81.25 0 0 0 8.9 7.06 50.17 50.17 0 0 0 9.92 5.42 25.55 25.55 0 0 0 9.8 2.15c2.15 0 4.21-.55 6.19-1.64 1.98-1.1 2.96-2.86 2.96-5.3 0-.67-.13-1.3-.38-1.9a4.36 4.36 0 0 1-.39-1.76c0-.42.22-.63.65-.63.6 0 1.11.5 1.54 1.52.43 1 .78 2.1 1.03 3.28.26 1.17.39 2.01.39 2.52 0 2.6-1.03 4.37-3.1 5.3a13.7 13.7 0 0 1-6.31 1.5Zm-65.49-75.04a68.94 68.94 0 0 1 16.76-12.6 52.07 52.07 0 0 1 20.25-6.31 48.9 48.9 0 0 0-9.16-3.16 37.68 37.68 0 0 0-9.67-1.26c-5.58 0-10.14 1.39-13.66 4.16-3.44 2.78-5.16 7.07-5.16 12.87 0 1.09.04 2.18.13 3.28.08 1 .26 2.01.51 3.02Zm25.4 48.3a45.6 45.6 0 0 0 13.02-5.55 38.8 38.8 0 0 0 10.45-9.58 54.18 54.18 0 0 0 6.19-11.1 31.26 31.26 0 0 0 2.57-12.36c0-5.71-1.54-10.84-4.64-15.38a36.12 36.12 0 0 0-11.99-11.23 46.6 46.6 0 0 0-14.82 3.28 59.93 59.93 0 0 0-13.67 7.57 67.18 67.18 0 0 0-11.22 10.09c3.1 7.73 6.53 15.43 10.32 23.08a120.37 120.37 0 0 0 13.8 21.18Zm-10.7 1.26h2.84l2.7-.25a111.02 111.02 0 0 1-13.14-19.42 155.6 155.6 0 0 1-9.29-21.44 49.82 49.82 0 0 0-5.41 9.84 28.12 28.12 0 0 0-2.2 10.84c0 4.63 1.12 8.45 3.36 11.48a21.3 21.3 0 0 0 9.02 6.8 33.98 33.98 0 0 0 12.12 2.15Z"/><path fill="#000" d="M207.62 104.56c-2.33 0-3.87-.89-4.65-2.65a15.84 15.84 0 0 1-1.03-5.55c0-2.44.26-4.88.78-7.31a55.8 55.8 0 0 0 1.03-7.32c-1.03 1.26-2.5 3.07-4.39 5.42-1.89 2.27-4 4.67-6.31 7.2a56.15 56.15 0 0 1-6.84 6.17c-2.23 1.68-4.17 2.52-5.8 2.52-3.18 0-4.77-1.64-4.77-4.91 0-2.2.43-4.42 1.29-6.69a62.24 62.24 0 0 1 3.22-6.8 863.3 863.3 0 0 0 3.48-6.19h-.25c-.52 0-.78-.2-.78-.63v-.38c.09-.08.13-.16.13-.25 1.2-2.02 2.2-3.74 2.97-5.17a8.09 8.09 0 0 1 3.1-3.4c1.28-.76 3.26-1.14 5.92-1.14.43 0 .65.25.65.76 0 .59-.48 1.72-1.42 3.4-.95 1.6-1.98 3.2-3.1 4.8a113 113 0 0 0-2.32 3.4 49.3 49.3 0 0 0-2.57 4.92 107.83 107.83 0 0 0-2.84 6.56 16.4 16.4 0 0 0-1.16 5.17 6 6 0 0 0 .13 1.26c.17.33.51.5 1.03.5a5.5 5.5 0 0 0 2.96-1.13 65.84 65.84 0 0 0 11.86-11.35c2.84-3.53 5.42-7.1 7.74-10.72.26-.5.39-.97.39-1.39.25-1 .64-1.98 1.16-2.9a6.61 6.61 0 0 1 2.06-2.27 9.07 9.07 0 0 1 2.84-1c1.2-.26 2.15-.39 2.83-.39.35 0 .78.09 1.3.25.5.09.77.34.77.76s-.39 1.1-1.16 2.02c-.7.92-1.47 1.85-2.33 2.77-.77.84-1.33 1.56-1.67 2.15a22.48 22.48 0 0 0-2.06 5.92 76.15 76.15 0 0 0-1.42 7.7 51 51 0 0 0-.52 6.43c0 1.1.13 2.31.39 3.66.26 1.34 1.12 2.01 2.58 2.01a7.3 7.3 0 0 0 4.38-1.64 42.56 42.56 0 0 0 4-3.4c1.12-1.18 1.76-1.77 1.93-1.77.09 0 .13.09.13.26 0 .75-.43 1.64-1.29 2.64a28.7 28.7 0 0 1-2.84 2.9c-.94.84-1.67 1.48-2.19 1.9a20.08 20.08 0 0 1-3.48 2.01 9.26 9.26 0 0 1-3.86.89Z"/><path fill="#000" d="M244.91 104.56c-2.32 0-3.87-.89-4.64-2.65a14.29 14.29 0 0 1-1.16-5.55c0-2.1.17-4.2.52-6.3.34-2.1.73-4.17 1.16-6.19a48.01 48.01 0 0 1-4.13 5.55c-1.89 2.27-4 4.59-6.32 6.94a48.77 48.77 0 0 1-7.09 5.8c-2.32 1.51-4.38 2.27-6.19 2.27-1.03 0-1.72-.34-2.06-1a6.3 6.3 0 0 1-.39-2.28c0-1.76.43-4 1.3-6.68a52.4 52.4 0 0 1 3.6-8.45 57.35 57.35 0 0 1 5.16-8.32 31.8 31.8 0 0 1 6.06-6.06c2.15-1.6 4.3-2.31 6.45-2.14.94-.5 1.97-.97 3.09-1.39a9.47 9.47 0 0 1 3.35-.63c.86 0 1.72.08 2.58.25.95.09 1.85.21 2.7.38.44-.17.91-.33 1.43-.5a4.96 4.96 0 0 1 1.54-.26c.95 0 1.42.43 1.42 1.27a8.9 8.9 0 0 1-.77 2.52 24.4 24.4 0 0 1-1.55 3.4c-.51 1.01-.94 1.6-1.29 1.77a32.98 32.98 0 0 0-2.19 5.93 65.21 65.21 0 0 0-1.68 7.31 39.35 39.35 0 0 0-.64 6.43c0 .93.13 1.98.39 3.15.34 1.1 1.16 1.64 2.45 1.64a7.3 7.3 0 0 0 4.38-1.64 42.67 42.67 0 0 0 4-3.4c1.11-1.18 1.76-1.77 1.93-1.77.17 0 .26.09.26.26 0 .75-.43 1.64-1.3 2.64a28.58 28.58 0 0 1-2.83 2.9l-2.32 1.9a20.08 20.08 0 0 1-3.48 2.01c-1.2.6-2.45.89-3.74.89Zm-23.33-4.42c.43 0 .94-.17 1.54-.5l1.42-1.01a43.08 43.08 0 0 0 12.12-12.49c2.92-4.7 5.76-9.75 8.51-15.13-.34-.17-.73-.3-1.16-.38a6.69 6.69 0 0 0-1.29-.12c-1.63 0-3.27.42-4.9 1.26a13.89 13.89 0 0 0-3.87 3.03 39.47 39.47 0 0 0-5.02 6.68 88.57 88.57 0 0 0-4.52 8.45 54.64 54.64 0 0 0-3.35 8.45c-.09.25-.13.54-.13.88 0 .59.22.88.65.88Z"/><path fill="#000" d="M273.06 62.69c-.26 0-.43-.3-.51-.88v-1.27c0-.25.04-.8.12-1.63.09-.85.35-1.3.78-1.4a54.05 54.05 0 0 0 7.22-1.5c.17-.09.43-.13.77-.13.43 0 .65.2.65.63 0 .92-.6 1.9-1.8 2.9a18.43 18.43 0 0 1-3.88 2.4 9.18 9.18 0 0 1-3.35.88Zm-10.44 40.86c-4.21 0-6.32-2.1-6.32-6.3 0-1.77.26-3.58.77-5.43.6-1.85 1.25-3.57 1.94-5.17a62.81 62.81 0 0 1 2.58-5.42l2.83-5.3c.43-.76.82-1.51 1.16-2.27.43-.84.86-1.64 1.3-2.4a5.03 5.03 0 0 1 2.44-1.5 9.27 9.27 0 0 1 2.84-.64c.08 0 .08.04 0 .13h-.13c.09 0 .13.04.13.12a.89.89 0 0 1 .64-.25c.35 0 .56.17.65.5.08.26.13.5.13.76 0 .59-.26 1.47-.78 2.65a17.86 17.86 0 0 1-1.67 3.4c-.6 1.01-1.2 1.64-1.8 1.9a49.66 49.66 0 0 1-3.1 5.8 91.64 91.64 0 0 0-3.35 6.43 13.97 13.97 0 0 0-1.55 6.18c0 2.35 1.29 3.53 3.87 3.53 1.2 0 2.49-.38 3.86-1.14a32.24 32.24 0 0 0 4.26-2.64l3.48-2.78c1.03-.76 1.68-1.13 1.93-1.13.09 0 .13.04.13.12 0 .34-.13.72-.38 1.14-.26.33-.48.59-.65.75a26.66 26.66 0 0 1-4.12 4.17 28.7 28.7 0 0 1-5.55 3.4 12.64 12.64 0 0 1-5.54 1.39Z"/><path stroke="#000" stroke-width="2" d="M172.7 128.52c-3.6 0-7.43-.72-11.47-2.15a67.37 67.37 0 0 1-11.99-5.67 82.13 82.13 0 0 1-10.83-7.57 88.64 88.64 0 0 1-8.63-7.82 47.27 47.27 0 0 1-10.45 1.14c-4.64 0-9.06-.8-13.28-2.4a24.03 24.03 0 0 1-10.18-7.31C93.29 93.38 92 89.17 92 84.13c0-4.8 1.16-9.59 3.48-14.38 2.4-4.8 5.16-9 8.25-12.61a53.5 53.5 0 0 1-1.29-5.17c-.34-1.85-.51-3.7-.51-5.55 0-4.88 1.2-8.7 3.6-11.48a19.34 19.34 0 0 1 9.42-6.05A39.26 39.26 0 0 1 127.2 27c2.92 0 6.1.3 9.54.88 3.44.5 6.79 1.35 10.05 2.52a31.22 31.22 0 0 1 8.39 4.42c2.57.34 5.32 1.05 8.25 2.14 3 1.01 5.63 2.23 7.86 3.66.34.25.65.55.9.88.35.34.52.72.52 1.14 0 .59-.3.88-.9.88-.43 0-.9-.17-1.42-.5a44.24 44.24 0 0 0-5.8-3.28 37.24 37.24 0 0 0-6.32-2.27 43.5 43.5 0 0 1 8.5 10.84 26.88 26.88 0 0 1 3.36 13.24c0 4.38-.94 8.62-2.84 12.74a54.72 54.72 0 0 1-6.96 11.35 55.33 55.33 0 0 1-11.6 11.1 50.95 50.95 0 0 1-14.31 7.31 90.8 90.8 0 0 0 7.09 6.94 81.25 81.25 0 0 0 8.9 7.06 50.17 50.17 0 0 0 9.92 5.42 25.55 25.55 0 0 0 9.8 2.15c2.15 0 4.21-.55 6.19-1.64 1.98-1.1 2.96-2.86 2.96-5.3 0-.67-.13-1.3-.38-1.9a4.36 4.36 0 0 1-.39-1.76c0-.42.22-.63.65-.63.6 0 1.11.5 1.54 1.52.43 1 .78 2.1 1.03 3.28.26 1.17.39 2.01.39 2.52 0 2.6-1.03 4.37-3.1 5.3a13.7 13.7 0 0 1-6.31 1.5Zm-65.49-75.04a68.94 68.94 0 0 1 16.76-12.6 52.07 52.07 0 0 1 20.25-6.31 48.9 48.9 0 0 0-9.16-3.16 37.68 37.68 0 0 0-9.67-1.26c-5.58 0-10.14 1.39-13.66 4.16-3.44 2.78-5.16 7.07-5.16 12.87 0 1.09.04 2.18.13 3.28.08 1 .26 2.01.51 3.02Zm25.4 48.3a45.6 45.6 0 0 0 13.02-5.55 38.8 38.8 0 0 0 10.45-9.58 54.18 54.18 0 0 0 6.19-11.1 31.26 31.26 0 0 0 2.57-12.36c0-5.71-1.54-10.84-4.64-15.38a36.12 36.12 0 0 0-11.99-11.23 46.6 46.6 0 0 0-14.82 3.28 59.93 59.93 0 0 0-13.67 7.57 67.18 67.18 0 0 0-11.22 10.09c3.1 7.73 6.53 15.43 10.32 23.08a120.37 120.37 0 0 0 13.8 21.18Zm-10.7 1.26h2.84l2.7-.25a111.02 111.02 0 0 1-13.14-19.42 155.6 155.6 0 0 1-9.29-21.44 49.82 49.82 0 0 0-5.41 9.84 28.12 28.12 0 0 0-2.2 10.84c0 4.63 1.12 8.45 3.36 11.48a21.3 21.3 0 0 0 9.02 6.8 33.98 33.98 0 0 0 12.12 2.15Z"/><path stroke="#000" stroke-width="2" d="M207.62 104.56c-2.33 0-3.87-.89-4.65-2.65a15.84 15.84 0 0 1-1.03-5.55c0-2.44.26-4.88.78-7.31a55.8 55.8 0 0 0 1.03-7.32c-1.03 1.26-2.5 3.07-4.39 5.42-1.89 2.27-4 4.67-6.31 7.2a56.15 56.15 0 0 1-6.84 6.17c-2.23 1.68-4.17 2.52-5.8 2.52-3.18 0-4.77-1.64-4.77-4.91 0-2.2.43-4.42 1.29-6.69a62.24 62.24 0 0 1 3.22-6.8 863.3 863.3 0 0 0 3.48-6.19h-.25c-.52 0-.78-.2-.78-.63v-.38c.09-.08.13-.16.13-.25 1.2-2.02 2.2-3.74 2.97-5.17a8.09 8.09 0 0 1 3.1-3.4c1.28-.76 3.26-1.14 5.92-1.14.43 0 .65.25.65.76 0 .59-.48 1.72-1.42 3.4-.95 1.6-1.98 3.2-3.1 4.8a113 113 0 0 0-2.32 3.4 49.3 49.3 0 0 0-2.57 4.92 107.83 107.83 0 0 0-2.84 6.56 16.4 16.4 0 0 0-1.16 5.17 6 6 0 0 0 .13 1.26c.17.33.51.5 1.03.5a5.5 5.5 0 0 0 2.96-1.13 65.84 65.84 0 0 0 11.86-11.35c2.84-3.53 5.42-7.1 7.74-10.72.26-.5.39-.97.39-1.39.25-1 .64-1.98 1.16-2.9a6.61 6.61 0 0 1 2.06-2.27 9.07 9.07 0 0 1 2.84-1c1.2-.26 2.15-.39 2.83-.39.35 0 .78.09 1.3.25.5.09.77.34.77.76s-.39 1.1-1.16 2.02c-.7.92-1.47 1.85-2.33 2.77-.77.84-1.33 1.56-1.67 2.15a22.48 22.48 0 0 0-2.06 5.92 76.15 76.15 0 0 0-1.42 7.7 51 51 0 0 0-.52 6.43c0 1.1.13 2.31.39 3.66.26 1.34 1.12 2.01 2.58 2.01a7.3 7.3 0 0 0 4.38-1.64 42.56 42.56 0 0 0 4-3.4c1.12-1.18 1.76-1.77 1.93-1.77.09 0 .13.09.13.26 0 .75-.43 1.64-1.29 2.64a28.7 28.7 0 0 1-2.84 2.9c-.94.84-1.67 1.48-2.19 1.9a20.08 20.08 0 0 1-3.48 2.01 9.26 9.26 0 0 1-3.86.89Z"/><path stroke="#000" stroke-width="2" d="M244.91 104.56c-2.32 0-3.87-.89-4.64-2.65a14.29 14.29 0 0 1-1.16-5.55c0-2.1.17-4.2.52-6.3.34-2.1.73-4.17 1.16-6.19a48.01 48.01 0 0 1-4.13 5.55c-1.89 2.27-4 4.59-6.32 6.94a48.77 48.77 0 0 1-7.09 5.8c-2.32 1.51-4.38 2.27-6.19 2.27-1.03 0-1.72-.34-2.06-1a6.3 6.3 0 0 1-.39-2.28c0-1.76.43-4 1.3-6.68a52.4 52.4 0 0 1 3.6-8.45 57.35 57.35 0 0 1 5.16-8.32 31.8 31.8 0 0 1 6.06-6.06c2.15-1.6 4.3-2.31 6.45-2.14.94-.5 1.97-.97 3.09-1.39a9.47 9.47 0 0 1 3.35-.63c.86 0 1.72.08 2.58.25.95.09 1.85.21 2.7.38.44-.17.91-.33 1.43-.5a4.96 4.96 0 0 1 1.54-.26c.95 0 1.42.43 1.42 1.27a8.9 8.9 0 0 1-.77 2.52 24.4 24.4 0 0 1-1.55 3.4c-.51 1.01-.94 1.6-1.29 1.77a32.98 32.98 0 0 0-2.19 5.93 65.21 65.21 0 0 0-1.68 7.31 39.35 39.35 0 0 0-.64 6.43c0 .93.13 1.98.39 3.15.34 1.1 1.16 1.64 2.45 1.64a7.3 7.3 0 0 0 4.38-1.64 42.67 42.67 0 0 0 4-3.4c1.11-1.18 1.76-1.77 1.93-1.77.17 0 .26.09.26.26 0 .75-.43 1.64-1.3 2.64a28.58 28.58 0 0 1-2.83 2.9l-2.32 1.9a20.08 20.08 0 0 1-3.48 2.01c-1.2.6-2.45.89-3.74.89Zm-23.33-4.42c.43 0 .94-.17 1.54-.5l1.42-1.01a43.08 43.08 0 0 0 12.12-12.49c2.92-4.7 5.76-9.75 8.51-15.13-.34-.17-.73-.3-1.16-.38a6.69 6.69 0 0 0-1.29-.12c-1.63 0-3.27.42-4.9 1.26a13.89 13.89 0 0 0-3.87 3.03 39.47 39.47 0 0 0-5.02 6.68 88.57 88.57 0 0 0-4.52 8.45 54.64 54.64 0 0 0-3.35 8.45c-.09.25-.13.54-.13.88 0 .59.22.88.65.88Z"/><path stroke="#000" stroke-width="2" d="M273.06 62.69c-.26 0-.43-.3-.51-.88v-1.27c0-.25.04-.8.12-1.63.09-.85.35-1.3.78-1.4a54.05 54.05 0 0 0 7.22-1.5c.17-.09.43-.13.77-.13.43 0 .65.2.65.63 0 .92-.6 1.9-1.8 2.9a18.43 18.43 0 0 1-3.88 2.4 9.18 9.18 0 0 1-3.35.88Zm-10.44 40.86c-4.21 0-6.32-2.1-6.32-6.3 0-1.77.26-3.58.77-5.43.6-1.85 1.25-3.57 1.94-5.17a62.81 62.81 0 0 1 2.58-5.42l2.83-5.3c.43-.76.82-1.51 1.16-2.27.43-.84.86-1.64 1.3-2.4a5.03 5.03 0 0 1 2.44-1.5 9.27 9.27 0 0 1 2.84-.64c.08 0 .08.04 0 .13h-.13c.09 0 .13.04.13.12a.89.89 0 0 1 .64-.25c.35 0 .56.17.65.5.08.26.13.5.13.76 0 .59-.26 1.47-.78 2.65a17.86 17.86 0 0 1-1.67 3.4c-.6 1.01-1.2 1.64-1.8 1.9a49.66 49.66 0 0 1-3.1 5.8 91.64 91.64 0 0 0-3.35 6.43 13.97 13.97 0 0 0-1.55 6.18c0 2.35 1.29 3.53 3.87 3.53 1.2 0 2.49-.38 3.86-1.14a32.24 32.24 0 0 0 4.26-2.64l3.48-2.78c1.03-.76 1.68-1.13 1.93-1.13.09 0 .13.04.13.12 0 .34-.13.72-.38 1.14-.26.33-.48.59-.65.75a26.66 26.66 0 0 1-4.12 4.17 28.7 28.7 0 0 1-5.55 3.4 12.64 12.64 0 0 1-5.54 1.39Z"/><path fill="#010002" d="M24.5.48 24 29.52c0 1.14-.66 2.62-1.89 2.62h-.66c-1.23 0-1.88-1.63-1.88-2.8L17.61.25H13.4l-1.96 29.49c0 1.06-.65 2.4-1.88 2.4h-.65c-1.23 0-1.89-1.63-1.89-2.8L6.52.6C0 1.82 0 7.25 0 31.05c0 8.03 2.69 15.02 7.48 18.78a13.24 13.24 0 0 0 4.38 2.3L9.66 152.2c0 2.08 3.74 3.79 5.5 3.79h2.9c1.75 0 5.5-1.7 5.5-3.79L21.35 51.75a14.54 14.54 0 0 0 4.77-3.27c3.85-3.95 5.99-10.28 5.99-17.43 0-24.68-.4-29.6-7.6-30.57Zm35.2 63.7v15.2c0 1.62-.4 3.1-1.06 4.38-1.13-1.16-2.73-1.18-3.52-1.18-.58 0-1.2.04-1.86.08-.7.05-1.44.1-2.21.1h-.75c-.77 0-1.51-.05-2.2-.1-.67-.04-1.3-.08-1.87-.08-.8 0-2.39.02-3.52 1.18a9.42 9.42 0 0 1-1.07-4.37V0C57.04-.24 59.7 59.56 59.7 64.18ZM46.34 85.3c.52 0 1.09.04 1.69.08.72.05 1.49.1 2.28.1h.73a35 35 0 0 0 2.28-.1c.6-.04 1.17-.08 1.69-.08.98 0 1.58.1 1.93.54.3.36.41.95.41 1.92v60.51c0 4.26-2.83 7.73-6.31 7.73h-.73c-3.48 0-6.31-3.47-6.31-7.73V87.76c0-.97.12-1.56.4-1.92.35-.43.95-.54 1.94-.54Z"/></svg>