<svg xmlns="http://www.w3.org/2000/svg" fill="none" viewBox="0 0 371 200"><path fill="#000" d="M91.3 182.4c-1.2 0-2-.6-2.6-1.8-.6-1-1-2-1-3l.2-.6v-.8c.8-4.3 2.2-8.2 4.3-11.6 2-3.5 4.3-6.7 7-9.7 2.8-3.1 5.6-6.2 8.6-9a47 47 0 0 1-5-5.1 10 10 0 0 1-2.4-6.3c0-2.4 1-4.3 2.7-5.7 1.8-1.4 4.1-2.5 6.9-3.2a57 57 0 0 1 8.6-1.5 98.2 98.2 0 0 1 10.7-.2h2.2A821.7 821.7 0 0 1 164 96.4l10.4-8.5 2.8-1.9a61.5 61.5 0 0 0 4-3.4c.9-.8 2.3-1.7 4.2-2.6 2-1 3.6-1.5 4.9-1.5 1 0 1.4.3 1.4 1l-.1.6a110.3 110.3 0 0 1-4.4 9.8c-.9 1.7-1.8 3-2.7 3.8l-.6.4-.7.4a2 2 0 0 0-.9 1c0 .3-.1.8-.4 1.4-.6 1.3-1.3 2.7-2.2 4l-2.3 4a172.2 172.2 0 0 0-9.3 19.4h7.4a22.7 22.7 0 0 1 3.2.3c.3.1.5.3.5.5 0 .3-.2.5-.8.7l-1 .2-5.8 1c-2.1.4-3.9 1.1-5.2 2.3-3.3 8.4-5 17.2-5 26.5v.8c0 .3 0 .6.2 1h3a39.8 39.8 0 0 0 5.2 0h2c.6 0 1 .3 1 .7 0 .7-.5 1.6-1.6 2.9a13 13 0 0 1-2.3 2.6 11 11 0 0 1-6 2c-2.3 0-4-.6-5.2-1.6-1.2-1-2-2.5-2.5-4.8a133 133 0 0 1-23-3.9A126 126 0 0 1 120 152a42 42 0 0 1-9.4-4.8c-2.6 2.7-5.1 5.5-7.7 8.6-2.5 3-4.7 6-6.6 9.3a32.8 32.8 0 0 0-3.9 10.6v1.1l.3 2 .1 2c0 1-.5 1.6-1.6 1.6Zm72.7-58.2a11556 11556 0 0 1 4.2-10.4l1.6-3.3a671.6 671.6 0 0 1 5.6-12.4 136 136 0 0 0 3.4-8.3l-.1-.1a277.3 277.3 0 0 0-42.3 34.4l27.6.1Zm-8.8 32.8v-.6c0-5.2.9-10.3 2.6-15.1a737 737 0 0 0 5.1-14.4h-4.2l-4.1-.1c-2.4 0-5.2 0-8.4.2s-6.3.6-9.4 1.3c-3 .6-5.5 1.6-7.4 3l-8.4 6.6a89.9 89.9 0 0 0-8 6.9c2.3 2 5.2 3.6 8.7 5a107.4 107.4 0 0 0 23.3 6c3.9.6 7.3 1 10.2 1.2Zm-45.1-13.6a833.3 833.3 0 0 0 17.7-16.1l-1.5-.2H125a39.2 39.2 0 0 0-11.6 2.1 18 18 0 0 0-5.3 2.9 5.4 5.4 0 0 0-2.1 4.4c0 1.3.4 2.6 1.2 3.8l2.9 3.1Zm54.8 20c.7 0 1.5-.3 2.3-1 .8-.8 1.2-1.6 1.2-2.3v-.2H167l-1.3.2c-.6 0-1.3 0-2-.2H162c.2.8.5 1.5 1 2.3.3.8 1 1.3 2 1.3Zm9.1-4.9c-.5 0-.8-.2-.7-.6a242.6 242.6 0 0 0 13.4-27.9c0-.2-.2-.3-.7-.2-.4 0-.6 0-.6-.4a78.8 78.8 0 0 1 4.6-7.7c.5-.5 1.3-1 2.5-1.5s2-.8 2.7-.8c.9 0 1.3.4 1.3 1.2l-1 2.5a60 60 0 0 1-2.2 5 392.2 392.2 0 0 0-5.5 11.3l-1.5 3 3.4-3.7a302.3 302.3 0 0 1 11.6-11 42 42 0 0 1 5.5-4.3c1.7-1.2 3-1.8 4-1.8.7 0 1 .2 1.2.7l.2 1.4a39.5 39.5 0 0 1-1.3 6.8c-.7 2.6-1.5 5.6-2.6 9-.9 3.4-1.4 6.3-1.4 8.8 0 1.3.2 2.5.7 3.6.5 1 1.5 1.5 3 1.5a7 7 0 0 0 3.8-1.2c1.4-.7 2.6-1.6 3.7-2.6l3.1-2.8c1-.7 1.6-1.1 1.8-1.1.1 0 .2 0 .2.2l-.3 1c0 .4-.2.6-.4.8a23.8 23.8 0 0 1-6 6c-2.6 2-5.2 3-7.8 3-2.6 0-4.7-.8-6-2.3a9.5 9.5 0 0 1-2-6.2c0-2.2.4-4.6 1.2-7.3a188 188 0 0 0 3.4-12.1c0-.2 0-.4-.2-.7 0-.2-.2-.3-.5-.3-.4 0-1 .2-1.7.7l-1.4 1a73.1 73.1 0 0 0-11.5 12.1 120.4 120.4 0 0 0-9.2 13.5c-.2.5-.8 1-1.7 1.6-.9.5-1.8.9-2.9 1.2a6 6 0 0 1-2.1.6Z"/><path fill="#000" d="M227.7 156.7c-4.2 0-6.3-2.2-6.3-6.4 0-2.5.6-5.3 1.8-8.4a116.3 116.3 0 0 1 8.7-17.5 33 33 0 0 0-4.3.7 25.4 25.4 0 0 1-5 .3.8.8 0 0 1-.4-.8c0-.5.3-.8.8-1a21 21 0 0 1 3.7-2.1 51.4 51.4 0 0 0 9.6-7.7l.9-1.8c.3-.6.9-1 1.8-1.3l3-1a8 8 0 0 1 2.8-1c.4 0 .6.2.6.5s-.3 1-.9 2a78.9 78.9 0 0 1-5.3 9.6h2.7a81 81 0 0 1 8.4.7c1.1.2 1.7.6 1.7 1 0 .3-.3.6-.8.7l-1.4.2a150.3 150.3 0 0 0-12.1.5 228.3 228.3 0 0 0-6.6 12.7 69 69 0 0 0-2.8 7.2c-.8 2.3-1.2 4.2-1.2 6 0 1 .2 1.9.6 2.6.6.6 1.4 1 2.6 1 1.2 0 2.6-.4 4-1.2a19 19 0 0 0 4.1-2.6l3.5-2.8c1-.7 1.7-1.1 2-1.1v.1c0 .3 0 .7-.3 1.1a32.7 32.7 0 0 1-4.8 5 28.7 28.7 0 0 1-5.5 3.4 13 13 0 0 1-5.6 1.3Zm1.3-35.1 2.2-.3 2.2-.2.7-1.8.5-1.7c-1 .5-2 1.2-2.9 2a74 74 0 0 1-2.7 2Z"/><path fill="#000" d="M258.3 115.8c-.3 0-.5-.3-.5-.9V112c.2-.8.4-1.3.9-1.4a54.7 54.7 0 0 0 8-1.6c.4 0 .6.2.6.6 0 1-.6 1.9-1.8 3-1.1.8-2.4 1.6-3.9 2.3a9 9 0 0 1-3.3.9Zm-10.5 40.9c-4.2 0-6.3-2.2-6.3-6.4 0-1.7.3-3.5.8-5.4a59.7 59.7 0 0 1 4.5-10.6l2.8-5.3c.5-.7.8-1.5 1.2-2.2.4-.9.8-1.7 1.3-2.4a5 5 0 0 1 2.4-1.5 8 8 0 0 1 2.9-.7v.1h-.2c.1 0 .2 0 .2.2.1-.2.4-.3.6-.3.4 0 .6.2.7.5v.8a18 18 0 0 1-2.4 6c-.6 1-1.2 1.7-1.8 2-.7 1.7-1.8 3.6-3 5.7a91.3 91.3 0 0 0-3.4 6.5 14 14 0 0 0-1.6 6.1c0 2.4 1.3 3.6 3.9 3.6a8 8 0 0 0 3.9-1.2 32.3 32.3 0 0 0 7.7-5.4c1-.7 1.7-1.1 2-1.1v.1c0 .3 0 .7-.3 1.1l-.7.8a26.6 26.6 0 0 1-9.6 7.6c-2 .9-3.8 1.3-5.6 1.3Z"/><path fill="#000" d="M271 198.5c-2.5 0-4.2-1-5-2.9-1-1.8-1.3-3.8-1.3-5.8 0-2.8.5-6.3 1.6-10.5a165 165 0 0 1 9.2-25.3l4.6-10a114 114 0 0 1-8.5 8.1 43.7 43.7 0 0 1-5.4 4 10 10 0 0 1-4.8 1.4c-1 0-1.6-.3-1.9-1a5 5 0 0 1-.4-2.2c0-1.8.4-4 1.3-6.7a60.6 60.6 0 0 1 8.6-16.8c2-2.5 4-4.5 6.1-6a9.5 9.5 0 0 1 6.5-2.2l3-1.4c1.2-.4 2.3-.6 3.4-.6l2 .1c.8 0 1.6.2 2.3.3a7 7 0 0 1 2.1-1 8.7 8.7 0 0 1 4-.2c.5.1.8.4.8 1l-.1.4-4.1 5.6a92.4 92.4 0 0 0-12.5 21 58.8 58.8 0 0 1 7.5 25.9c0 4-.8 7.7-2.3 11.3a22.2 22.2 0 0 1-11.7 12.1 10 10 0 0 1-5 1.4Zm-5-45.3c.5 0 1-.1 1.5-.5l1.4-1a40 40 0 0 0 8-7.7 140.4 140.4 0 0 0 12.6-20l-1.1-.3H287c-1.6 0-3.2.3-4.8 1.2a16 16 0 0 0-4 3c-1.6 1.7-3.3 4-5 6.7a88.6 88.6 0 0 0-8 17.8c0 .6.3.8.8.8Zm8.2 42a5 5 0 0 0 3.6-1.7c1.2-1.2 2.3-2.6 3.4-4.3a35 35 0 0 0 5.1-16.8 76.3 76.3 0 0 0-5.2-22.6 281.6 281.6 0 0 0-6.3 20l-2.4 10.8a57 57 0 0 0-.9 9.5c0 .8.1 1.9.4 3.1.3 1.4 1.1 2 2.3 2Zm53.1-37.5c-2.3 0-3.9-1-4.7-2.7-.6-1.8-1-3.7-1-5.5 0-2.5.3-5 .8-7.4.5-2.4.8-4.8 1-7.3l-4.4 5.5-6.3 7.1a56.1 56.1 0 0 1-6.8 6.2 10 10 0 0 1-5.8 2.5c-3.2 0-4.8-1.6-4.8-4.9 0-2.2.4-4.4 1.3-6.7 1-2.3 2-4.6 3.2-6.8l3.5-6.1h-.3c-.5 0-.7-.3-.7-.7v-.4l.1-.2 3-5.2a8 8 0 0 1 3-3.4 12 12 0 0 1 6-1.1c.4 0 .6.2.6.7 0 .6-.4 1.8-1.4 3.4a75.4 75.4 0 0 1-5.4 8.2c-.7 1.1-1.5 2.8-2.6 5-1 2.1-2 4.3-2.8 6.5-.8 2.2-1.2 4-1.2 5.2 0 .4 0 .8.2 1.2.1.4.5.6 1 .6.9 0 1.8-.4 3-1.2a66.7 66.7 0 0 0 11.8-11.3c2.9-3.6 5.4-7.1 7.8-10.8l.3-1.3 1.2-3a7 7 0 0 1 2-2.2 14.8 14.8 0 0 1 5.7-1.4c.4 0 .8 0 1.3.3.5 0 .8.3.8.7a33 33 0 0 1-3.5 4.8c-.8.8-1.3 1.6-1.7 2.2-.7 1.3-1.4 3.3-2 5.9a75.9 75.9 0 0 0-2 14.1c0 1 .2 2.3.4 3.7.3 1.3 1.2 2 2.6 2 1.5 0 3-.6 4.4-1.7a42.7 42.7 0 0 0 6-5.1v.2c0 .8-.4 1.7-1.2 2.7a30.3 30.3 0 0 1-8.5 6.8c-1.3.6-2.6.9-4 .9Z"/><path fill="#000" d="M339.8 157.5c-1.9 0-3.1-.3-3.7-.8-.6-.6-1-1.9-1-3.7 0-2 .6-4.3 1.5-7a96.2 96.2 0 0 1 2.7-6.6v-.3c0-.4.1-.7.4-1l.8-.7 1.1-2 1-2c1.5-2.2 3.3-4.4 5.4-6.5 2.1-2.1 4.5-3.5 7.2-4.3 1-.3 1.8-.4 2.7-.4l.5.1c.3 0 .4.1.4.3 0 .3-.3.5-.8.9l-.9.7a25.5 25.5 0 0 0-4.5 5l-3.7 5.6c2-.3 3.9-.6 5.8-.7 2-.2 3.9-.2 5.8 0a24.1 24.1 0 0 0 3.8-10.5c0-1-.1-1.5-.4-1.6-.1-.2-.6-.3-1.4-.3l-.8-.1c-.3 0-.5-.3-.5-.5 0-.3.4-.6 1.2-.9l2.4-.5 1.7-.3c2.3 0 3.5 1.1 3.5 3.2 0 1.2-.4 2.6-1.2 4.3-.6 1.6-1.6 3.1-2.7 4.5-1 1.4-2 2.3-3 3 .2 0 .7 0 1.5.3l2.3.6c.8.3 1.2.6 1.2 1 0 .2-.3.3-.8.4h-1l-2.4-.1c-.7-.2-1.5-.3-2.3-.3a55 55 0 0 0-14.5 1.8 91 91 0 0 0-3 5.8 16 16 0 0 0-1.6 6.3c0 3 1.6 4.4 4.7 4.4 2.2 0 4.4-.6 6.4-1.7 2.2-1.2 4.2-2.6 6-4.2a71.3 71.3 0 0 0 6.3-6c.2 0 .4.2.4.6 0 1-.6 2.2-1.8 3.6a23.3 23.3 0 0 1-3 3c-3 2.2-6.4 4-10.2 5.5a31.6 31.6 0 0 1-11.5 2.1Z"/><path stroke="#000" stroke-width="2" d="M91.3 182.4c-1.2 0-2-.6-2.6-1.8-.6-1-1-2-1-3l.2-.6v-.8c.8-4.3 2.2-8.2 4.3-11.6 2-3.5 4.3-6.7 7-9.7 2.8-3.1 5.6-6.2 8.6-9a47 47 0 0 1-5-5.1 10 10 0 0 1-2.4-6.3c0-2.4 1-4.3 2.7-5.7 1.8-1.4 4.1-2.5 6.9-3.2a57 57 0 0 1 8.6-1.5 98.2 98.2 0 0 1 10.7-.2h2.2A821.7 821.7 0 0 1 164 96.4l10.4-8.5 2.8-1.9a61.5 61.5 0 0 0 4-3.4c.9-.8 2.3-1.7 4.2-2.6 2-1 3.6-1.5 4.9-1.5 1 0 1.4.3 1.4 1l-.1.6a110.3 110.3 0 0 1-4.4 9.8c-.9 1.7-1.8 3-2.7 3.8l-.6.4-.7.4a2 2 0 0 0-.9 1c0 .3-.1.8-.4 1.4-.6 1.3-1.3 2.7-2.2 4l-2.3 4a172.2 172.2 0 0 0-9.3 19.4h7.4a22.7 22.7 0 0 1 3.2.3c.3.1.5.3.5.5 0 .3-.2.5-.8.7l-1 .2-5.8 1c-2.1.4-3.9 1.1-5.2 2.3-3.3 8.4-5 17.2-5 26.5v.8c0 .3 0 .6.2 1h3a39.8 39.8 0 0 0 5.2 0h2c.6 0 1 .3 1 .7 0 .7-.5 1.6-1.6 2.9a13 13 0 0 1-2.3 2.6 11 11 0 0 1-6 2c-2.3 0-4-.6-5.2-1.6-1.2-1-2-2.5-2.5-4.8a133 133 0 0 1-23-3.9A126 126 0 0 1 120 152a42 42 0 0 1-9.4-4.8c-2.6 2.7-5.1 5.5-7.7 8.6-2.5 3-4.7 6-6.6 9.3a32.8 32.8 0 0 0-3.9 10.6v1.1l.3 2 .1 2c0 1-.5 1.6-1.6 1.6Zm72.7-58.2a11556 11556 0 0 1 4.2-10.4l1.6-3.3a671.6 671.6 0 0 1 5.6-12.4 136 136 0 0 0 3.4-8.3l-.1-.1a277.3 277.3 0 0 0-42.3 34.4l27.6.1Zm-8.8 32.8v-.6c0-5.2.9-10.3 2.6-15.1a737 737 0 0 0 5.1-14.4h-4.2l-4.1-.1c-2.4 0-5.2 0-8.4.2s-6.3.6-9.4 1.3c-3 .6-5.5 1.6-7.4 3l-8.4 6.6a89.9 89.9 0 0 0-8 6.9c2.3 2 5.2 3.6 8.7 5a107.4 107.4 0 0 0 23.3 6c3.9.6 7.3 1 10.2 1.2Zm-45.1-13.6a833.3 833.3 0 0 0 17.7-16.1l-1.5-.2H125a39.2 39.2 0 0 0-11.6 2.1 18 18 0 0 0-5.3 2.9 5.4 5.4 0 0 0-2.1 4.4c0 1.3.4 2.6 1.2 3.8l2.9 3.1Zm54.8 20c.7 0 1.5-.3 2.3-1 .8-.8 1.2-1.6 1.2-2.3v-.2H167l-1.3.2c-.6 0-1.3 0-2-.2H162c.2.8.5 1.5 1 2.3.3.8 1 1.3 2 1.3Zm9.1-4.9c-.5 0-.8-.2-.7-.6a242.6 242.6 0 0 0 13.4-27.9c0-.2-.2-.3-.7-.2-.4 0-.6 0-.6-.4a78.8 78.8 0 0 1 4.6-7.7c.5-.5 1.3-1 2.5-1.5s2-.8 2.7-.8c.9 0 1.3.4 1.3 1.2l-1 2.5a60 60 0 0 1-2.2 5 392.2 392.2 0 0 0-5.5 11.3l-1.5 3 3.4-3.7a302.3 302.3 0 0 1 11.6-11 42 42 0 0 1 5.5-4.3c1.7-1.2 3-1.8 4-1.8.7 0 1 .2 1.2.7l.2 1.4a39.5 39.5 0 0 1-1.3 6.8c-.7 2.6-1.5 5.6-2.6 9-.9 3.4-1.4 6.3-1.4 8.8 0 1.3.2 2.5.7 3.6.5 1 1.5 1.5 3 1.5a7 7 0 0 0 3.8-1.2c1.4-.7 2.6-1.6 3.7-2.6l3.1-2.8c1-.7 1.6-1.1 1.8-1.1.1 0 .2 0 .2.2l-.3 1c0 .4-.2.6-.4.8a23.8 23.8 0 0 1-6 6c-2.6 2-5.2 3-7.8 3-2.6 0-4.7-.8-6-2.3a9.5 9.5 0 0 1-2-6.2c0-2.2.4-4.6 1.2-7.3a188 188 0 0 0 3.4-12.1c0-.2 0-.4-.2-.7 0-.2-.2-.3-.5-.3-.4 0-1 .2-1.7.7l-1.4 1a73.1 73.1 0 0 0-11.5 12.1 120.4 120.4 0 0 0-9.2 13.5c-.2.5-.8 1-1.7 1.6-.9.5-1.8.9-2.9 1.2a6 6 0 0 1-2.1.6Z"/><path stroke="#000" stroke-width="2" d="M227.7 156.7c-4.2 0-6.3-2.2-6.3-6.4 0-2.5.6-5.3 1.8-8.4a116.3 116.3 0 0 1 8.7-17.5 33 33 0 0 0-4.3.7 25.4 25.4 0 0 1-5 .3.8.8 0 0 1-.4-.8c0-.5.3-.8.8-1a21 21 0 0 1 3.7-2.1 51.4 51.4 0 0 0 9.6-7.7l.9-1.8c.3-.6.9-1 1.8-1.3l3-1a8 8 0 0 1 2.8-1c.4 0 .6.2.6.5s-.3 1-.9 2a78.9 78.9 0 0 1-5.3 9.6h2.7a81 81 0 0 1 8.4.7c1.1.2 1.7.6 1.7 1 0 .3-.3.6-.8.7l-1.4.2a150.3 150.3 0 0 0-12.1.5 228.3 228.3 0 0 0-6.6 12.7 69 69 0 0 0-2.8 7.2c-.8 2.3-1.2 4.2-1.2 6 0 1 .2 1.9.6 2.6.6.6 1.4 1 2.6 1 1.2 0 2.6-.4 4-1.2a19 19 0 0 0 4.1-2.6l3.5-2.8c1-.7 1.7-1.1 2-1.1v.1c0 .3 0 .7-.3 1.1a32.7 32.7 0 0 1-4.8 5 28.7 28.7 0 0 1-5.5 3.4 13 13 0 0 1-5.6 1.3Zm1.3-35.1 2.2-.3 2.2-.2.7-1.8.5-1.7c-1 .5-2 1.2-2.9 2a74 74 0 0 1-2.7 2Z"/><path stroke="#000" stroke-width="2" d="M258.3 115.8c-.3 0-.5-.3-.5-.9V112c.2-.8.4-1.3.9-1.4a54.7 54.7 0 0 0 8-1.6c.4 0 .6.2.6.6 0 1-.6 1.9-1.8 3-1.1.8-2.4 1.6-3.9 2.3a9 9 0 0 1-3.3.9Zm-10.5 40.9c-4.2 0-6.3-2.2-6.3-6.4 0-1.7.3-3.5.8-5.4a59.7 59.7 0 0 1 4.5-10.6l2.8-5.3c.5-.7.8-1.5 1.2-2.2.4-.9.8-1.7 1.3-2.4a5 5 0 0 1 2.4-1.5 8 8 0 0 1 2.9-.7v.1h-.2c.1 0 .2 0 .2.2.1-.2.4-.3.6-.3.4 0 .6.2.7.5v.8a18 18 0 0 1-2.4 6c-.6 1-1.2 1.7-1.8 2-.7 1.7-1.8 3.6-3 5.7a91.3 91.3 0 0 0-3.4 6.5 14 14 0 0 0-1.6 6.1c0 2.4 1.3 3.6 3.9 3.6a8 8 0 0 0 3.9-1.2 32.3 32.3 0 0 0 7.7-5.4c1-.7 1.7-1.1 2-1.1v.1c0 .3 0 .7-.3 1.1l-.7.8a26.6 26.6 0 0 1-9.6 7.6c-2 .9-3.8 1.3-5.6 1.3Z"/><path stroke="#000" stroke-width="2" d="M271 198.5c-2.5 0-4.2-1-5-2.9-1-1.8-1.3-3.8-1.3-5.8 0-2.8.5-6.3 1.6-10.5a165 165 0 0 1 9.2-25.3l4.6-10a114 114 0 0 1-8.5 8.1 43.7 43.7 0 0 1-5.4 4 10 10 0 0 1-4.8 1.4c-1 0-1.6-.3-1.9-1a5 5 0 0 1-.4-2.2c0-1.8.4-4 1.3-6.7a60.6 60.6 0 0 1 8.6-16.8c2-2.5 4-4.5 6.1-6a9.5 9.5 0 0 1 6.5-2.2l3-1.4c1.2-.4 2.3-.6 3.4-.6l2 .1c.8 0 1.6.2 2.3.3a7 7 0 0 1 2.1-1 8.7 8.7 0 0 1 4-.2c.5.1.8.4.8 1l-.1.4-4.1 5.6a92.4 92.4 0 0 0-12.5 21 58.8 58.8 0 0 1 7.5 25.9c0 4-.8 7.7-2.3 11.3a22.2 22.2 0 0 1-11.7 12.1 10 10 0 0 1-5 1.4Zm-5-45.3c.5 0 1-.1 1.5-.5l1.4-1a40 40 0 0 0 8-7.7 140.4 140.4 0 0 0 12.6-20l-1.1-.3H287c-1.6 0-3.2.3-4.8 1.2a16 16 0 0 0-4 3c-1.6 1.7-3.3 4-5 6.7a88.6 88.6 0 0 0-8 17.8c0 .6.3.8.8.8Zm8.2 42a5 5 0 0 0 3.6-1.7c1.2-1.2 2.3-2.6 3.4-4.3a35 35 0 0 0 5.1-16.8 76.3 76.3 0 0 0-5.2-22.6 281.6 281.6 0 0 0-6.3 20l-2.4 10.8a57 57 0 0 0-.9 9.5c0 .8.1 1.9.4 3.1.3 1.4 1.1 2 2.3 2Zm53.1-37.5c-2.3 0-3.9-1-4.7-2.7-.6-1.8-1-3.7-1-5.5 0-2.5.3-5 .8-7.4.5-2.4.8-4.8 1-7.3l-4.4 5.5-6.3 7.1a56.1 56.1 0 0 1-6.8 6.2 10 10 0 0 1-5.8 2.5c-3.2 0-4.8-1.6-4.8-4.9 0-2.2.4-4.4 1.3-6.7 1-2.3 2-4.6 3.2-6.8l3.5-6.1h-.3c-.5 0-.7-.3-.7-.7v-.4l.1-.2 3-5.2a8 8 0 0 1 3-3.4 12 12 0 0 1 6-1.1c.4 0 .6.2.6.7 0 .6-.4 1.8-1.4 3.4a75.4 75.4 0 0 1-5.4 8.2c-.7 1.1-1.5 2.8-2.6 5-1 2.1-2 4.3-2.8 6.5-.8 2.2-1.2 4-1.2 5.2 0 .4 0 .8.2 1.2.1.4.5.6 1 .6.9 0 1.8-.4 3-1.2a66.7 66.7 0 0 0 11.8-11.3c2.9-3.6 5.4-7.1 7.8-10.8l.3-1.3 1.2-3a7 7 0 0 1 2-2.2 14.8 14.8 0 0 1 5.7-1.4c.4 0 .8 0 1.3.3.5 0 .8.3.8.7a33 33 0 0 1-3.5 4.8c-.8.8-1.3 1.6-1.7 2.2-.7 1.3-1.4 3.3-2 5.9a75.9 75.9 0 0 0-2 14.1c0 1 .2 2.3.4 3.7.3 1.3 1.2 2 2.6 2 1.5 0 3-.6 4.4-1.7a42.7 42.7 0 0 0 6-5.1v.2c0 .8-.4 1.7-1.2 2.7a30.3 30.3 0 0 1-8.5 6.8c-1.3.6-2.6.9-4 .9Z"/><path stroke="#000" stroke-width="2" d="M339.8 157.5c-1.9 0-3.1-.3-3.7-.8-.6-.6-1-1.9-1-3.7 0-2 .6-4.3 1.5-7a96.2 96.2 0 0 1 2.7-6.6v-.3c0-.4.1-.7.4-1l.8-.7 1.1-2 1-2c1.5-2.2 3.3-4.4 5.4-6.5 2.1-2.1 4.5-3.5 7.2-4.3 1-.3 1.8-.4 2.7-.4l.5.1c.3 0 .4.1.4.3 0 .3-.3.5-.8.9l-.9.7a25.5 25.5 0 0 0-4.5 5l-3.7 5.6c2-.3 3.9-.6 5.8-.7 2-.2 3.9-.2 5.8 0a24.1 24.1 0 0 0 3.8-10.5c0-1-.1-1.5-.4-1.6-.1-.2-.6-.3-1.4-.3l-.8-.1c-.3 0-.5-.3-.5-.5 0-.3.4-.6 1.2-.9l2.4-.5 1.7-.3c2.3 0 3.5 1.1 3.5 3.2 0 1.2-.4 2.6-1.2 4.3-.6 1.6-1.6 3.1-2.7 4.5-1 1.4-2 2.3-3 3 .2 0 .7 0 1.5.3l2.3.6c.8.3 1.2.6 1.2 1 0 .2-.3.3-.8.4h-1l-2.4-.1c-.7-.2-1.5-.3-2.3-.3a55 55 0 0 0-14.5 1.8 91 91 0 0 0-3 5.8 16 16 0 0 0-1.6 6.3c0 3 1.6 4.4 4.7 4.4 2.2 0 4.4-.6 6.4-1.7 2.2-1.2 4.2-2.6 6-4.2a71.3 71.3 0 0 0 6.3-6c.2 0 .4.2.4.6 0 1-.6 2.2-1.8 3.6a23.3 23.3 0 0 1-3 3c-3 2.2-6.4 4-10.2 5.5a31.6 31.6 0 0 1-11.5 2.1Z"/><path fill="#000" d="M194.7 102.8a35 35 0 0 1-11.5-2.1 82.2 82.2 0 0 1-22.8-13.2 88.7 88.7 0 0 1-8.7-7.9 44.2 44.2 0 0 1-23.7-1.3 24 24 0 0 1-10.2-7.3 20.1 20.1 0 0 1-3.8-12.6c0-4.8 1.1-9.6 3.5-14.4 2.4-4.8 5.1-9 8.2-12.6a50.6 50.6 0 0 1-1.8-10.7 17 17 0 0 1 3.6-11.5c2.4-2.8 5.6-4.8 9.4-6 3.9-1.3 8-2 12.3-2a56.8 56.8 0 0 1 28 7.9c2.5.3 5.3 1 8.2 2.1 3 1 5.6 2.3 7.9 3.7l.9.9c.3.3.5.7.5 1.1 0 .6-.3.9-1 .9-.4 0-.8-.2-1.3-.5a44.2 44.2 0 0 0-12.2-5.5c3.5 3.1 6.3 6.8 8.5 10.8a26 26 0 0 1 3.4 13.2c0 4.4-1 8.7-2.8 12.8A54.7 54.7 0 0 1 170.7 71a51 51 0 0 1-14.3 7.3 90.9 90.9 0 0 0 25.9 19.5c3.4 1.4 6.7 2.1 9.8 2.1 2.2 0 4.2-.5 6.2-1.6s3-2.9 3-5.3c0-.7-.2-1.3-.4-2-.3-.5-.4-1.1-.4-1.7 0-.4.2-.6.6-.6.6 0 1.1.5 1.6 1.5A18.3 18.3 0 0 1 204 96c0 2.6-1 4.4-3.1 5.3-2 1-4 1.5-6.3 1.5Zm-65.5-75a69 69 0 0 1 16.7-12.6 52 52 0 0 1 20.3-6.3 49 49 0 0 0-18.8-4.5c-5.6 0-10.2 1.4-13.7 4.2-3.4 2.8-5.2 7-5.2 12.9a41.8 41.8 0 0 0 .7 6.3ZM154.6 76c4.6-1.2 9-3 13-5.6 4.1-2.6 7.6-5.8 10.4-9.6 2.5-3.4 4.6-7.1 6.2-11 1.8-4.1 2.6-8.2 2.6-12.4 0-5.7-1.5-10.9-4.6-15.4a35.8 35.8 0 0 0-12-11.2c-5 .2-10 1.3-14.8 3.2a67.2 67.2 0 0 0-24.9 17.7c3 7.7 6.5 15.4 10.3 23 3.9 7.6 8.5 14.7 13.8 21.3Zm-10.7 1.2h2.8l2.7-.2a111 111 0 0 1-13.1-19.4c-3.7-7.1-6.8-14.3-9.3-21.5a43 43 0 0 0-5.4 9.9 28.1 28.1 0 0 0-2.2 10.8c0 4.6 1.1 8.4 3.3 11.5 2.4 3 5.4 5.3 9 6.8a34 34 0 0 0 12.2 2.1Z"/><path fill="#000" d="M229.6 78.8c-2.3 0-3.9-.8-4.7-2.6-.6-1.9-1-3.7-1-5.6 0-2.4.3-4.8.8-7.3.5-2.4.8-4.8 1-7.3l-4.4 5.4-6.3 7.2a56.2 56.2 0 0 1-6.8 6.2c-2.3 1.7-4.2 2.5-5.8 2.5-3.2 0-4.8-1.6-4.8-4.9 0-2.2.4-4.4 1.3-6.7 1-2.3 2-4.6 3.2-6.8l3.5-6.2h-.3c-.5 0-.7-.2-.7-.6v-.4l.1-.2 3-5.2a8 8 0 0 1 3-3.4 12 12 0 0 1 6-1.1c.4 0 .6.2.6.7 0 .6-.4 1.7-1.4 3.4a75 75 0 0 1-5.4 8.2c-.7 1.1-1.5 2.8-2.6 5-1 2.1-2 4.3-2.8 6.5-.8 2.2-1.2 4-1.2 5.2 0 .4 0 .8.2 1.2.1.4.5.5 1 .5.8 0 1.8-.3 3-1.1a65.8 65.8 0 0 0 11.8-11.3 146 146 0 0 0 7.8-10.8l.3-1.4c.3-1 .7-2 1.2-2.9a7 7 0 0 1 2-2.2 14.7 14.7 0 0 1 5.7-1.4c.4 0 .8 0 1.3.2.5.1.8.4.8.8s-.4 1-1.2 2a33 33 0 0 1-2.3 2.8 13 13 0 0 0-1.7 2.1c-.7 1.4-1.4 3.4-2 6a76.2 76.2 0 0 0-2 14c0 1.2.2 2.4.4 3.7.3 1.4 1.1 2 2.6 2s3-.5 4.4-1.6a42.7 42.7 0 0 0 6-5.2v.3c0 .8-.4 1.6-1.2 2.6a30.2 30.2 0 0 1-8.5 6.9 11 11 0 0 1-4 .8Z"/><path fill="#000" d="M266.9 78.8c-2.3 0-3.9-.8-4.7-2.6a16 16 0 0 1-1.1-5.6 45.8 45.8 0 0 1 1.7-12.4 112.2 112.2 0 0 1-10.4 12.5 48.7 48.7 0 0 1-7.2 5.7 11.7 11.7 0 0 1-6.2 2.3c-1 0-1.7-.3-2-1-.3-.7-.4-1.4-.4-2.3 0-1.7.4-4 1.3-6.6a57.3 57.3 0 0 1 8.8-16.8c2-2.5 4-4.6 6-6a9.5 9.5 0 0 1 6.4-2.2l3.1-1.4c1.2-.4 2.3-.6 3.4-.6a26.1 26.1 0 0 1 5.3.6l1.4-.5a5 5 0 0 1 1.5-.3c1 0 1.5.5 1.5 1.3a24.3 24.3 0 0 1-2.3 6c-.6 1-1 1.5-1.3 1.7a65.2 65.2 0 0 0-4.5 19.7c0 .9 0 2 .3 3.1.4 1.1 1.2 1.7 2.5 1.7 1.4 0 2.9-.6 4.4-1.7a42.5 42.5 0 0 0 5.9-5.2c.2 0 .2.1.2.3 0 .8-.4 1.6-1.2 2.6l-2.9 3-2.3 1.8c-1 .8-2.2 1.5-3.5 2-1.2.6-2.4 1-3.7 1Zm-23.4-4.4c.5 0 1-.1 1.6-.5l1.4-1a43 43 0 0 0 12.1-12.5c3-4.7 5.8-9.7 8.5-15.1l-1.1-.4-1.3-.1c-1.6 0-3.3.4-5 1.3a14 14 0 0 0-3.8 3 40.1 40.1 0 0 0-5 6.7 88.4 88.4 0 0 0-7.6 16.1l-.3.8-.1.8c0 .6.2 1 .6 1Z"/><path fill="#000" d="M295 37c-.2 0-.4-.3-.5-1v-1.2l.1-1.6c.1-.9.4-1.3.8-1.4a54.2 54.2 0 0 0 8-1.6c.4 0 .7.2.7.6 0 1-.6 1.9-1.8 2.9-1.2 1-2.5 1.7-4 2.4a9 9 0 0 1-3.3.9Zm-10.4 40.8c-4.2 0-6.3-2-6.3-6.3 0-1.7.2-3.5.7-5.4a60.1 60.1 0 0 1 4.6-10.6 12954.9 12954.9 0 0 1 5.2-10 5 5 0 0 1 2.5-1.5c1.2-.4 2.1-.6 2.8-.6.1 0 .1 0 0 .1h-.1l.1.2c.2-.2.4-.3.7-.3.3 0 .5.2.6.5l.1.8a18 18 0 0 1-2.4 6c-.6 1-1.2 1.7-1.8 2-.8 1.7-1.8 3.6-3.1 5.7a91.6 91.6 0 0 0-3.4 6.4 14 14 0 0 0-1.5 6.2c0 2.4 1.3 3.6 3.9 3.6a8 8 0 0 0 3.8-1.2 32.3 32.3 0 0 0 7.8-5.4c1-.8 1.6-1.1 1.9-1.1h.1c0 .4-.1.8-.4 1.2l-.6.8a26.6 26.6 0 0 1-9.7 7.5c-1.9 1-3.7 1.4-5.5 1.4Z"/><path stroke="#000" stroke-width="2" d="M194.7 102.8a35 35 0 0 1-11.5-2.1 82.2 82.2 0 0 1-22.8-13.2 88.7 88.7 0 0 1-8.7-7.9 44.2 44.2 0 0 1-23.7-1.3 24 24 0 0 1-10.2-7.3 20.1 20.1 0 0 1-3.8-12.6c0-4.8 1.1-9.6 3.5-14.4 2.4-4.8 5.1-9 8.2-12.6a50.6 50.6 0 0 1-1.8-10.7 17 17 0 0 1 3.6-11.5c2.4-2.8 5.6-4.8 9.4-6 3.9-1.3 8-2 12.3-2a56.8 56.8 0 0 1 28 7.9c2.5.3 5.3 1 8.2 2.1 3 1 5.6 2.3 7.9 3.7l.9.9c.3.3.5.7.5 1.1 0 .6-.3.9-1 .9-.4 0-.8-.2-1.3-.5a44.2 44.2 0 0 0-12.2-5.5c3.5 3.1 6.3 6.8 8.5 10.8a26 26 0 0 1 3.4 13.2c0 4.4-1 8.7-2.8 12.8A54.7 54.7 0 0 1 170.7 71a51 51 0 0 1-14.3 7.3 90.9 90.9 0 0 0 25.9 19.5c3.4 1.4 6.7 2.1 9.8 2.1 2.2 0 4.2-.5 6.2-1.6s3-2.9 3-5.3c0-.7-.2-1.3-.4-2-.3-.5-.4-1.1-.4-1.7 0-.4.2-.6.6-.6.6 0 1.1.5 1.6 1.5A18.3 18.3 0 0 1 204 96c0 2.6-1 4.4-3.1 5.3-2 1-4 1.5-6.3 1.5Zm-65.5-75a69 69 0 0 1 16.7-12.6 52 52 0 0 1 20.3-6.3 49 49 0 0 0-18.8-4.5c-5.6 0-10.2 1.4-13.7 4.2-3.4 2.8-5.2 7-5.2 12.9a41.8 41.8 0 0 0 .7 6.3ZM154.6 76c4.6-1.2 9-3 13-5.6 4.1-2.6 7.6-5.8 10.4-9.6 2.5-3.4 4.6-7.1 6.2-11 1.8-4.1 2.6-8.2 2.6-12.4 0-5.7-1.5-10.9-4.6-15.4a35.8 35.8 0 0 0-12-11.2c-5 .2-10 1.3-14.8 3.2a67.2 67.2 0 0 0-24.9 17.7c3 7.7 6.5 15.4 10.3 23 3.9 7.6 8.5 14.7 13.8 21.3Zm-10.7 1.2h2.8l2.7-.2a111 111 0 0 1-13.1-19.4c-3.7-7.1-6.8-14.3-9.3-21.5a43 43 0 0 0-5.4 9.9 28.1 28.1 0 0 0-2.2 10.8c0 4.6 1.1 8.4 3.3 11.5 2.4 3 5.4 5.3 9 6.8a34 34 0 0 0 12.2 2.1Z"/><path stroke="#000" stroke-width="2" d="M229.6 78.8c-2.3 0-3.9-.8-4.7-2.6-.6-1.9-1-3.7-1-5.6 0-2.4.3-4.8.8-7.3.5-2.4.8-4.8 1-7.3l-4.4 5.4-6.3 7.2a56.2 56.2 0 0 1-6.8 6.2c-2.3 1.7-4.2 2.5-5.8 2.5-3.2 0-4.8-1.6-4.8-4.9 0-2.2.4-4.4 1.3-6.7 1-2.3 2-4.6 3.2-6.8l3.5-6.2h-.3c-.5 0-.7-.2-.7-.6v-.4l.1-.2 3-5.2a8 8 0 0 1 3-3.4 12 12 0 0 1 6-1.1c.4 0 .6.2.6.7 0 .6-.4 1.7-1.4 3.4a75 75 0 0 1-5.4 8.2c-.7 1.1-1.5 2.8-2.6 5-1 2.1-2 4.3-2.8 6.5-.8 2.2-1.2 4-1.2 5.2 0 .4 0 .8.2 1.2.1.4.5.5 1 .5.8 0 1.8-.3 3-1.1a65.8 65.8 0 0 0 11.8-11.3 146 146 0 0 0 7.8-10.8l.3-1.4c.3-1 .7-2 1.2-2.9a7 7 0 0 1 2-2.2 14.7 14.7 0 0 1 5.7-1.4c.4 0 .8 0 1.3.2.5.1.8.4.8.8s-.4 1-1.2 2a33 33 0 0 1-2.3 2.8 13 13 0 0 0-1.7 2.1c-.7 1.4-1.4 3.4-2 6a76.2 76.2 0 0 0-2 14c0 1.2.2 2.4.4 3.7.3 1.4 1.1 2 2.6 2s3-.5 4.4-1.6a42.7 42.7 0 0 0 6-5.2v.3c0 .8-.4 1.6-1.2 2.6a30.2 30.2 0 0 1-8.5 6.9 11 11 0 0 1-4 .8Z"/><path stroke="#000" stroke-width="2" d="M266.9 78.8c-2.3 0-3.9-.8-4.7-2.6a16 16 0 0 1-1.1-5.6 45.8 45.8 0 0 1 1.7-12.4 112.2 112.2 0 0 1-10.4 12.5 48.7 48.7 0 0 1-7.2 5.7 11.7 11.7 0 0 1-6.2 2.3c-1 0-1.7-.3-2-1-.3-.7-.4-1.4-.4-2.3 0-1.7.4-4 1.3-6.6a57.3 57.3 0 0 1 8.8-16.8c2-2.5 4-4.6 6-6a9.5 9.5 0 0 1 6.4-2.2l3.1-1.4c1.2-.4 2.3-.6 3.4-.6a26.1 26.1 0 0 1 5.3.6l1.4-.5a5 5 0 0 1 1.5-.3c1 0 1.5.5 1.5 1.3a24.3 24.3 0 0 1-2.3 6c-.6 1-1 1.5-1.3 1.7a65.2 65.2 0 0 0-4.5 19.7c0 .9 0 2 .3 3.1.4 1.1 1.2 1.7 2.5 1.7 1.4 0 2.9-.6 4.4-1.7a42.5 42.5 0 0 0 5.9-5.2c.2 0 .2.1.2.3 0 .8-.4 1.6-1.2 2.6l-2.9 3-2.3 1.8c-1 .8-2.2 1.5-3.5 2-1.2.6-2.4 1-3.7 1Zm-23.4-4.4c.5 0 1-.1 1.6-.5l1.4-1a43 43 0 0 0 12.1-12.5c3-4.7 5.8-9.7 8.5-15.1l-1.1-.4-1.3-.1c-1.6 0-3.3.4-5 1.3a14 14 0 0 0-3.8 3 40.1 40.1 0 0 0-5 6.7 88.4 88.4 0 0 0-7.6 16.1l-.3.8-.1.8c0 .6.2 1 .6 1Z"/><path stroke="#000" stroke-width="2" d="M295 37c-.2 0-.4-.3-.5-1v-1.2l.1-1.6c.1-.9.4-1.3.8-1.4a54.2 54.2 0 0 0 8-1.6c.4 0 .7.2.7.6 0 1-.6 1.9-1.8 2.9-1.2 1-2.5 1.7-4 2.4a9 9 0 0 1-3.3.9Zm-10.4 40.8c-4.2 0-6.3-2-6.3-6.3 0-1.7.2-3.5.7-5.4a60.1 60.1 0 0 1 4.6-10.6 12954.9 12954.9 0 0 1 5.2-10 5 5 0 0 1 2.5-1.5c1.2-.4 2.1-.6 2.8-.6.1 0 .1 0 0 .1h-.1l.1.2c.2-.2.4-.3.7-.3.3 0 .5.2.6.5l.1.8a18 18 0 0 1-2.4 6c-.6 1-1.2 1.7-1.8 2-.8 1.7-1.8 3.6-3.1 5.7a91.6 91.6 0 0 0-3.4 6.4 14 14 0 0 0-1.5 6.2c0 2.4 1.3 3.6 3.9 3.6a8 8 0 0 0 3.8-1.2 32.3 32.3 0 0 0 7.8-5.4c1-.8 1.6-1.1 1.9-1.1h.1c0 .4-.1.8-.4 1.2l-.6.8a26.6 26.6 0 0 1-9.7 7.5c-1.9 1-3.7 1.4-5.5 1.4Z"/><path fill="#010002" d="m31.4.6-.6 37.2c0 1.5-.9 3.4-2.5 3.4h-.8c-1.6 0-2.4-2-2.4-3.6L22.6.3h-5.4l-2.5 37.8c0 1.4-.9 3.1-2.4 3.1h-.9c-1.6 0-2.4-2-2.4-3.6L8.4.8C0 2.3 0 9.3 0 39.8c0 10.3 3.4 19.3 9.6 24a17.7 17.7 0 0 0 5.6 3l-2.8 128.3c0 2.7 4.8 4.9 7 4.9h3.7c2.3 0 7.1-2.2 7.1-4.9L27.4 66.3a17.2 17.2 0 0 0 6-4.1 32 32 0 0 0 7.8-22.4c0-31.6-.6-38-9.8-39.2Zm45.2 81.7v19.5c0 2-.6 4-1.4 5.6-1.5-1.5-3.5-1.5-4.5-1.5h-2.4l-2.9.2h-1l-2.7-.1a38 38 0 0 0-2.4-.1c-1 0-3 0-4.5 1.5a12 12 0 0 1-1.4-5.6V0C73-.3 76.6 76.4 76.6 82.3Zm-17.2 27.1h2.2l2.9.2h1a44.6 44.6 0 0 0 5-.2c1.3 0 2 .1 2.5.6.4.5.5 1.3.5 2.5v77.6c0 5.5-3.6 9.9-8 9.9h-1c-4.5 0-8-4.4-8-10v-77.5c0-1.2 0-2 .4-2.5.5-.5 1.2-.6 2.5-.6Z"/></svg>